<svg xmlns="http://www.w3.org/2000/svg" width="888" height="688.506" viewBox="0 0 888 688.506"><g transform="translate(-50.287 -475.461)"><g transform="translate(290.032 475.461)"><g transform="translate(72.281)"><path d="M209.812,637.563c21.624,8.974,48.243,11.406,69.98.132,26.827-13.913,53.032-33.51,70.357-61.525,11.67-18.89,9.426-35.489-2.272-51.24-13.121-17.655-57.98-49.469-125.528-49.469-77.125,0-112.643,29.824-126.989,40.759s-17.457,30.7-.085,50.232C118.4,592.478,181.93,626,209.812,637.563Z" transform="translate(-83.389 -475.461)" fill="#ba0015"/></g><g transform="translate(0 136.161)"><path d="M293.626,612.069c-6.645-29.334-20.492-42.9-40.476-59.366-22.783-18.777-83.2-62.8-120.438-62.8-23.415,0-40.259,7.908-48.733,29.729,0,0-8.257,12.763-8.257,47.226,0,112.8,88.908,195.744,167.635,195.744,21.982,0,35.056-11.651,42.3-34.293C295.832,696.471,298.848,635.106,293.626,612.069Z" transform="translate(-75.721 -489.906)" fill="#ba0015"/></g><g transform="translate(255.909 145.654)"><path d="M133.064,545.367c-14.988,15.591-28.806,38.063-29.363,62.844s-2.95,67.359,4.251,96.524c5.6,22.717,15.808,27.723,38.9,15.987,32.3-16.421,108.608-76,108.608-170.859,0-49.818-22.8-65.248-47.8-56.736C188.914,499.518,148.052,529.767,133.064,545.367Z" transform="translate(-102.87 -490.913)" fill="#ba0015"/></g></g><g transform="translate(50.287 1024.272)"><path d="M92.243,574.766a3.259,3.259,0,0,1-3.5-3.487V558.45c0-9.521-4.657-14.187-14.177-14.187H71.845c-9.52,0-14.177,4.666-14.177,14.187v63.334c0,9.53,4.657,14.186,14.177,14.186h2.922c9.521,0,14.177-4.656,14.177-14.186V605.666a3.213,3.213,0,0,1,3.5-3.3h.386a3.162,3.162,0,0,1,3.318,3.3V621.6c0,14.2-7.2,21.378-21.19,21.378h-3.3c-14.2,0-21.369-7.182-21.369-21.378V558.639c0-14.186,7.173-21.37,21.369-21.37h3.111c14.177,0,21.171,7.183,21.171,21.181v12.829a3.212,3.212,0,0,1-3.309,3.487Z" transform="translate(-50.287 -503.467)" fill="#474645"/><path d="M81.54,642.974H77.478c-14.2,0-21.378-7.182-21.378-21.378V558.639c0-14.186,7.183-21.37,21.378-21.37H81.54c14,0,21.19,7.183,21.19,21.37V621.6C102.73,635.792,95.538,642.974,81.54,642.974Zm-.179-98.711h-3.7c-9.511,0-14.177,4.666-14.177,14.187v63.334c0,9.53,4.666,14.186,14.177,14.186h3.7c9.52,0,14.177-4.656,14.177-14.186V558.45C95.538,548.929,90.882,544.263,81.361,544.263Z" transform="translate(-1.314 -503.467)" fill="#474645"/><path d="M100.491,536.982a3.212,3.212,0,0,1,3.5-3.3h.387a3.147,3.147,0,0,1,3.3,3.3V669.3a3.208,3.208,0,0,1-3.3,3.5h-.387a3.266,3.266,0,0,1-3.5-3.5v-4.855c-6.8,5.449-12.037,8.748-20.4,8.748-12.056,0-18.079-6.221-18.079-17.306v-71.11c0-11.265,6.023-17.288,18.079-17.288,8.361,0,13.79,3.3,20.4,8.55ZM69.215,655.111c0,7.776,4.657,11.076,11.264,11.076,7.381,0,12.829-3.488,20.012-9.709v-71.7c-7.183-6.41-12.631-10.294-19.437-10.294-7.183,0-11.839,3.3-11.839,11.066Z" transform="translate(48.518 -533.683)" fill="#474645"/><path d="M112.989,621.4c0,14.187-7.381,21.577-21.577,21.577H89.075c-14.375,0-21.558-7.39-21.558-21.577V558.846c0-14.2,7.183-21.577,21.558-21.577h2.338c14.2,0,21.577,7.381,21.577,21.577v30.7a3.576,3.576,0,0,1-3.7,3.676H74.9V621.6c0,9.53,4.656,14.374,14.384,14.374h2.13c9.52,0,14.384-4.844,14.384-14.374v-9.323a3.219,3.219,0,0,1,3.5-3.308h.386a3.167,3.167,0,0,1,3.309,3.308ZM74.9,558.639v27.6h30.71v-27.6c0-9.521-4.864-14.375-15.355-14.375C79.554,544.263,74.9,549.118,74.9,558.639Z" transform="translate(94.896 -503.467)" fill="#474645"/><path d="M88.44,672.281h-.405a3.256,3.256,0,0,1-3.478-3.5V574.748h-5.25a3.061,3.061,0,0,1-3.111-3.111v-.4a3.112,3.112,0,0,1,3.111-3.309h5.25v-17.08c0-11.283,5.043-17.109,16.307-17.109h3.318a3.3,3.3,0,0,1,3.5,3.1v.594a3.319,3.319,0,0,1-3.5,3.289h-3.12c-6.419,0-9.125,3.309-9.125,9.917v17.287h11.839a3.078,3.078,0,0,1,3.111,3.111v.4a3.128,3.128,0,0,1-3.111,3.309H91.937v94.036A3.266,3.266,0,0,1,88.44,672.281Z" transform="translate(168.018 -533.169)" fill="#5f5e5e"/><path d="M104.728,642.974h-4.072c-14.2,0-21.369-7.182-21.369-21.378V558.639c0-14.186,7.173-21.37,21.369-21.37h4.072c13.988,0,21.19,7.183,21.19,21.37V621.6C125.918,635.792,118.717,642.974,104.728,642.974Zm-.189-98.711h-3.7c-9.52,0-14.2,4.666-14.2,14.187v63.334c0,9.53,4.675,14.186,14.2,14.186h3.7c9.52,0,14.177-4.656,14.177-14.186V558.45C118.717,548.929,114.06,544.263,104.54,544.263Z" transform="translate(194.072 -503.467)" fill="#5f5e5e"/><path d="M88.8,642.578a3.266,3.266,0,0,1-3.5-3.5V540.955a3.218,3.218,0,0,1,3.5-3.3h.387a3.167,3.167,0,0,1,3.318,3.3v6.994c4.459-5.241,11.245-10.68,15.921-10.68,2.724,0,3.884,1.744,3.884,3.5,0,2.13-1.159,3.5-4.468,4.468-5.25,1.546-9.7,4.27-15.336,9.718v84.129a3.222,3.222,0,0,1-3.318,3.5Z" transform="translate(244.772 -503.467)" fill="#5f5e5e"/><path d="M124.063,665.073c0,3.7-1.932,5.628-5.637,5.628h-.387c-3.7,0-5.637-1.932-5.637-5.628V623.692L91.421,540.911c-.98-4.279.971-7,5.448-7h.387c2.913,0,4.854,1.366,5.429,4.279l15.553,68.6L134.168,538q.877-4.086,5.25-4.09h.387c4.082,0,6.221,2.526,5.062,6.608l-20.8,82.592Z" transform="translate(294.223 -531.786)" fill="#302d2c"/><path d="M151.269,648.279c0,15.741-7.975,23.895-23.9,23.895h-6.221c-15.949,0-23.914-8.154-23.914-23.895V557.533c0-15.543,7.965-23.707,23.914-23.707h6.221c15.921,0,23.9,8.163,23.9,23.707ZM139.6,557.146c0-8.351-4.072-12.443-12.631-12.443h-5.429c-8.559,0-12.631,4.091-12.631,12.443v91.707c0,8.362,4.072,12.443,12.631,12.443h5.429c8.559,0,12.631-4.082,12.631-12.443Z" transform="translate(345.33 -532.478)" fill="#302d2c"/><path d="M143.218,666.628l-27.6-63.542v61.986c0,3.7-1.932,5.628-5.637,5.628h-.386c-3.7,0-5.637-1.932-5.637-5.628V539.554c0-3.7,1.942-5.646,5.637-5.646h.386c3.7,0,5.637,1.942,5.637,5.646V600.56l28.373-61.789c1.159-2.526,2.517-4.864,5.835-4.864,3.884,0,7.173,3.308,5.241,7.588L127.09,601.145l27.2,61.6c2.121,4.854-1.565,7.956-5.646,7.956C145.942,670.7,144.377,669.352,143.218,666.628Z" transform="translate(401.954 -531.786)" fill="#302d2c"/><path d="M163.783,648.279c0,15.741-7.965,23.895-23.9,23.895h-6.221c-15.921,0-23.9-8.154-23.9-23.895V557.533c0-15.543,7.975-23.707,23.9-23.707h6.221c15.93,0,23.9,8.163,23.9,23.707Zm-11.651-91.133c0-8.351-4.091-12.443-12.631-12.443h-5.448c-8.54,0-12.631,4.091-12.631,12.443v91.707c0,8.362,4.091,12.443,12.631,12.443H139.5c8.54,0,12.631-4.082,12.631-12.443Z" transform="translate(450.936 -532.478)" fill="#302d2c"/><path d="M128.141,595.508h29.938V539.554c0-3.7,1.932-5.646,5.627-5.646h.387c3.7,0,5.637,1.942,5.637,5.646V665.073c0,3.7-1.932,5.628-5.637,5.628h-.387c-3.7,0-5.627-1.932-5.627-5.628V606.4H128.141v58.677c0,3.7-1.932,5.628-5.637,5.628h-.386c-3.676,0-5.628-1.932-5.628-5.628V539.554c0-3.7,1.951-5.646,5.628-5.646h.386c3.7,0,5.637,1.942,5.637,5.646Z" transform="translate(507.551 -531.786)" fill="#302d2c"/><path d="M174.5,671.046c-2.9,0-4.657-1.546-5.241-4.468l-3.3-21.567H137.2L133.9,666.579c-.575,2.922-2.319,4.468-5.251,4.468h-.387c-4.072,0-6.023-2.328-5.429-6.212l20.785-125.518c.584-3.7,2.724-5.449,6.41-5.449h3.111c3.7,0,5.835,1.754,6.419,5.449l20.785,125.518c.594,3.884-1.357,6.212-5.448,6.212ZM164.21,634.134l-12.622-81.216L138.75,634.134Z" transform="translate(560.087 -532.132)" fill="#302d2c"/><path d="M140.5,643.119v22.151c0,3.5-1.932,5.43-5.231,5.43h-.405c-3.5,0-5.43-1.932-5.43-5.43V540.336c0-4.091,2.319-6.428,6.41-6.428h5.429c3.516,0,5.646,1.762,6.221,5.25L168.874,650.1l21.369-110.946c.594-3.488,2.724-5.25,6.221-5.25h5.25c4.091,0,6.41,2.338,6.41,6.428V665.073c0,3.7-1.932,5.628-5.439,5.628H202.3c-3.7,0-5.646-1.932-5.646-5.628V642.724l.405-88.211L175.293,665.45c-.584,3.507-2.724,5.251-6.221,5.251H168.1c-3.507,0-5.637-1.744-6.231-5.251L140.115,554.117Z" transform="translate(616.628 -531.786)" fill="#302d2c"/><path d="M190.155,671.046c-2.913,0-4.657-1.546-5.251-4.468l-3.3-21.567h-28.75l-3.3,21.567c-.584,2.922-2.338,4.468-5.26,4.468h-.4c-4.063,0-6.014-2.328-5.429-6.212l20.785-125.518c.594-3.7,2.724-5.449,6.41-5.449h3.111c3.7,0,5.835,1.754,6.429,5.449l20.785,125.518c.585,3.884-1.367,6.212-5.448,6.212Zm-10.294-36.913L167.23,552.918,154.4,634.134Z" transform="translate(691.909 -532.132)" fill="#302d2c"/></g></g></svg>