<svg xmlns="http://www.w3.org/2000/svg" width="890" height="362.267" viewBox="0 0 890 362.267"><g transform="translate(-254.672 -229.596)"><path d="M1033.522,229.6H797.745L672.4,290.2l4.2,12.318a33.641,33.641,0,0,0-43.663,0l4.2-12.318L511.788,229.6H276.011L386.64,298.25H539.5L427.671,319.576l47.871,28.4,111.773-14.709,25.466,30.9-10.154,7.893,11.228,25.521,30.62-18.377.795-18.663a33.366,33.366,0,0,0,19,0l.795,18.663,30.62,18.377,11.228-25.521-10.154-7.893,25.463-30.9,111.774,14.709,47.871-28.4L770.03,298.25H922.893Z" transform="translate(35.214 0)" fill="#007bbc"/><g transform="translate(533.645 421.293)"><path d="M386.7,331.763a17.9,17.9,0,0,1-12.3-8.769,14.07,14.07,0,0,1-4.452,5.995,20.538,20.538,0,0,1-7.023,3.422l-2.979-3.562c8.8-1.712,11.852-5.274,11.714-14.316l2.981.138a27.837,27.837,0,0,0-5.584-5.822,31.21,31.21,0,0,0,4.829-6.885l3.527,1.367c.138.072.787.31.787.586,0,.31-.377.376-.445.408-.58.14-.649.17-.787.31-1.06,1.3-3.048,3.5-3.254,3.734a28.561,28.561,0,0,1,4.624,4.352l-3.289,1.951.821.032c.482.037.925.071.925.445,0,.207-.066.244-.443.62a1.613,1.613,0,0,0-.345,1.2c0,2.091,1.473,4.145,2.056,4.932,3.7,4.866,7.739,5.446,11.1,5.891Zm-20.415-16a28.321,28.321,0,0,0-6.1-6.405,39.061,39.061,0,0,0,5.139-7.331l3.6,1.543c.1.032.753.342.753.615,0,.238-.238.3-.411.342-.649.207-.718.238-.925.482-.238.3-.546.647-3.357,3.694a33.028,33.028,0,0,1,4.969,4.8Zm1.267,2.33a20.246,20.246,0,0,1-1.988,5.854l-3.9-1.3a15.3,15.3,0,0,0,2.192-6.543l3.835.856c.275.066.686.207.686.511C368.377,317.719,368.205,317.889,367.556,318.1Zm16.031-2.913a48.942,48.942,0,0,0-5.894-6.506,29.166,29.166,0,0,0,4.866-6.684l3.562,1.407c.2.069.856.307.856.649,0,.241-.342.31-.445.344-.787.2-.891.239-1.028.411-.477.511-2.637,3.048-3.151,3.628a32.828,32.828,0,0,1,4.625,4.659Zm2.806,2.329c-.376.1-.445.17-.546.376a27.086,27.086,0,0,1-3.358,4.691l-3.562-1.953a20.9,20.9,0,0,0,3.8-5.785l3.5,1.64c.514.244.615.413.615.586C386.838,317.34,386.7,317.409,386.393,317.513Z" transform="translate(-359.952 -301.895)" fill="#003950"/><path d="M390.552,312.537V313.8h9.315v2.812h-9.315v1.3h12.877v2.944H373.7v-2.944h12.843v-1.3h-9.384V313.8h9.384v-1.267h-7.227v-2.807h7.227v-1.956l3.872.175c.342,0,.856.069.856.374a.568.568,0,0,1-.172.379c-.069.066-.48.339-.546.414v.615h7.224v2.807Zm8.356-5.038H378.186v4.012h-3.631v-6.988h11.987V302.09l3.973.172c.345,0,.89.035.89.376a.561.561,0,0,1-.307.445c-.514.411-.546.445-.546.684v.755h11.987v7.19h-3.631Zm1.2,14.7v9.286h-3.87v-1.065H380.892v1.336h-3.907v-9.557Zm-3.87,5.446v-2.671H380.892v2.671Z" transform="translate(-337.266 -301.682)" fill="#003950"/><path d="M404.388,321.778a34.017,34.017,0,0,0-9.9-6.748v14.627h-4.214V302.53l4.248.755c.069,0,.821.135.821.543,0,.207-.856.755-.856.927v8.87l1.574-2.4a41.225,41.225,0,0,1,11.03,7.124Zm.994-11.749a14.158,14.158,0,0,0-3.082-3.013l1.882-1.505a14.074,14.074,0,0,1,3.082,3.011Zm4.007-2.226a14.271,14.271,0,0,0-3.186-3.085l1.781-1.505a14.35,14.35,0,0,1,3.186,3.085Z" transform="translate(-309.911 -300.956)" fill="#003950"/><path d="M421.356,326.168v-1.473H405.773v1.336H401.7v-22.4h23.735v22.54Zm0-18.671H405.773v13.325h15.583Z" transform="translate(-291.064 -299.144)" fill="#003950"/><path d="M414.216,311.209V306.86h24.35v4.349Z" transform="translate(-270.405 -293.81)" fill="#003950"/><path d="M433.463,310.442a30.8,30.8,0,0,0-7.026-4.317l2.091-3.22a31.913,31.913,0,0,1,7.193,4.243Zm10.036,9.315a46.123,46.123,0,0,1-12.914,7.635c-.172.482-.239,1.06-.512,1.06-.209,0-.517-.2-.758-.647l-2.4-4.113a32.045,32.045,0,0,0,12.708-5.923,47.711,47.711,0,0,0,10.036-10.482l2.364,3.427A48.51,48.51,0,0,1,443.5,319.758Z" transform="translate(-250.237 -300.337)" fill="#003950"/><path d="M467.593,331.513a21.543,21.543,0,0,1-5.618-4.9,23.775,23.775,0,0,1-7.328,5.722l-2.947-3.185a19.21,19.21,0,0,0,8.117-5.687,23.233,23.233,0,0,1-2.6-6.885,16.823,16.823,0,0,1-1.3,2.292l-3.562-1.778a12.62,12.62,0,0,0,1.709-2.16c-.066,0-.477-.1-.546-.1-.2,0-.718.787-.856.923-.824.925-2.226,2.329-3.051,3.217v2.263l2.433-2.226a26.575,26.575,0,0,1,3.872,4.762l-3.117,2.4a17.058,17.058,0,0,0-3.188-4.383v7.158c0,2.536-4.418,2.878-5.958,2.947l-1.508-3.941c2.4.172,3.493.069,3.493-1.06v-3.7c-.345.207-2.3,1.439-3.938,2.3-.2.1-.273.135-.376.445-.138.411-.138.514-.376.514s-.445-.379-.549-.617l-1.232-3.323a50.45,50.45,0,0,0,6.472-2.809v-2.054l-2.979,1.37a31.145,31.145,0,0,0-2.568-4.317l3.013-1.572a28.886,28.886,0,0,1,2.534,4.108V311.2h-5.308v-3.252h5.308V302.09l3.665.069c.175,0,.925.034.925.445,0,.207-.135.31-.3.48-.072.032-.313.238-.313.379v4.487h5.242V311.2h-5.242v2.981a14.31,14.31,0,0,0,1.853-2.194l2.6,2.054a3.776,3.776,0,0,1,.344.379,32.736,32.736,0,0,0,3.528-12.331l3.323.58c.307.072,1.1.178,1.1.549,0,.244-.241.379-.379.445-.48.244-.512.276-.549.379-.652,2.433-.856,3.116-1.1,3.975h9.591v3.352H468a35.13,35.13,0,0,1-3.869,12.127,18.226,18.226,0,0,0,6.4,4.831ZM452.11,307.329a19.077,19.077,0,0,0-1.884-3.252l2.4-1.474a16.5,16.5,0,0,1,1.985,3.254Zm8.014,4.042a20.062,20.062,0,0,0,1.884,8.738,25.938,25.938,0,0,0,2.329-8.738Z" transform="translate(-229.235 -301.682)" fill="#003950"/><path d="M471.133,318.956c-.069.414-.138.793-.239,1.238h8.221l1.468,1.129a16.412,16.412,0,0,1-3.694,6.371,16.087,16.087,0,0,0,5.889,1.471l-2.536,3.39a18.4,18.4,0,0,1-6.1-2.568,23.859,23.859,0,0,1-5.1,2.329l-2.635-2.64a18.077,18.077,0,0,0,5.1-1.982,17.07,17.07,0,0,1-2.091-3.019,22.88,22.88,0,0,1-5.719,7.365l-2.706-2.017c-.172.718-.617,2.017-3.051,2.017h-2.329l-1.985-3.938c.891.037,2.192.1,2.706.1.414,0,1.031-.066,1.031-.994v-6.848c-.551.2-1.439.445-1.953.684a.585.585,0,0,0-.31.276c-.342.48-.408.548-.649.548s-.276-.276-.345-.721l-.511-3.938c2.12-.482,2.841-.652,3.769-.89v-4.969h-3.533v-3.6h3.533V302.31l3.8.31c.31.037.859.1.859.376,0,.135-.1.276-.377.477-.379.276-.445.414-.445.549v3.732h2.361v3.6H461.2v3.938c1.267-.377,1.574-.477,1.987-.615v3.39c-.517.207-1.373.586-1.987.824v9.864a10.893,10.893,0,0,0,3.355-3.151,17.288,17.288,0,0,0,2.846-6.647h-2.981v-3.047h3.39c.037-.617.037-1.264.037-1.508h-2.982v-3.117h1.779a20.825,20.825,0,0,0-2.192-2.634l2.809-1.749a20.146,20.146,0,0,1,2.639,3.562l-1.2.822h3.254a19.034,19.034,0,0,0-2.022-3.663l2.536-1.27c-2.775.207-4.148.276-6.647.342l-1.815-3.252a56.418,56.418,0,0,0,14.9-1.505l2.33,3.08a1.5,1.5,0,0,1,.342.652.278.278,0,0,1-.3.276c-.244,0-1.27-.379-1.508-.379s-1.919.276-2.261.31c-1.2.172-2.536.308-4.214.445a18.212,18.212,0,0,1,1.884,3.97l-2.125.994h2.4a37.8,37.8,0,0,0,2.634-5.274l3.22,1.4c.035.035.684.31.684.583a.329.329,0,0,1-.307.342c-.477.135-.512.169-.652.31s-1.364,2.226-1.64,2.634h2.6V314.4h-10.41c-.037.824-.037,1.031-.069,1.508h11.507v3.047Zm.821,4.214a13.415,13.415,0,0,0,2.088,2.6,8.948,8.948,0,0,0,1.882-2.6Z" transform="translate(-205.419 -301.936)" fill="#003950"/><path d="M497.341,315.817c-.1,0-.549-.066-.617-.066a.93.93,0,0,0-.686.273,25.515,25.515,0,0,1-3.252,2.226,20.139,20.139,0,0,0,4.763,8.769l-3.461,2.465c-2.982-3.666-5.308-10.312-5.857-19.113h-.17a15.455,15.455,0,0,1-2.229,2.263,25.517,25.517,0,0,1,2.981,6.811,27.753,27.753,0,0,1,1.1,6.787c0,6.024-5.274,5.822-7.23,5.719l-1.264-3.906a18.582,18.582,0,0,0,2.462.17c1.749,0,2.5-.618,2.5-2.944a9.685,9.685,0,0,0-.1-1.715,31.131,31.131,0,0,1-9.557,6.615l-2.533-3.151a24.538,24.538,0,0,0,11.2-7.6c-.1-.379-.172-.514-.276-.861a28.267,28.267,0,0,1-5.03,3.843l-1.646-1.988c-.069,3.938-1.269,5.377-5.208,6.024l-1.744-3.39v8.907h-3.7V303.419h8.907l1.747,1.85-.753,1.815h3.559a17.5,17.5,0,0,0-2.088-3.493l3.05-1.58a28.63,28.63,0,0,1,2.637,4.079l-1.783.994h4.317a28.412,28.412,0,0,0,2.054-4.932l2.944.957c.89.276,1.269.684,1.269.959s-.307.376-.342.413c-.411.135-.686.2-.755.342-.1.1-.991,1.913-1.2,2.26h5v3.286h-4.9A36.244,36.244,0,0,0,492,314.86a19.216,19.216,0,0,0,2.806-2.366l2.433,2.226c.1.069.514.445.514.721A.407.407,0,0,1,497.341,315.817Zm-25.725-2.293,2.743-6.647h-2.876v15.994c1.914,0,3.353-.066,3.353-2.706C474.836,318.867,474.287,316.708,471.616,313.525Zm11.785,1.06a19.319,19.319,0,0,1-4.455,2.74l-1.709-3.185a19.619,19.619,0,0,0,6.233-3.769h-6.305v-2.089l-1.884,4.524c2.057,2.945,2.74,4.45,3.085,6.639a17.061,17.061,0,0,0,5.446-4.073C483.746,315.2,483.536,314.823,483.4,314.585Z" transform="translate(-182.011 -301.811)" fill="#003950"/></g><path d="M416.582,271.783l6.255-4.566,6.255,4.566-6.255,15.536Z" transform="translate(267.145 62.073)" fill="#fff"/><g transform="translate(713.586 328.124)"><path d="M588.084,330.83l-1.193,2.984-9.649-3.928,1.193-2.981Z" transform="translate(-181.361 -167.56)" fill="#003950"/><path d="M581.461,328.171l-1.163,2.91-9.443-3.843,1.166-2.907Z" transform="translate(-191.901 -171.808)" fill="#003950"/><path d="M574.914,325.546l-1.134,2.836-9.233-3.758,1.134-2.836Z" transform="translate(-202.311 -176.005)" fill="#003950"/><path d="M568.451,322.953l-1.108,2.761-9.029-3.676,1.108-2.761Z" transform="translate(-212.597 -180.148)" fill="#003950"/><path d="M562.058,320.391l-1.076,2.685-8.82-3.588,1.076-2.69Z" transform="translate(-222.749 -184.241)" fill="#003950"/><path d="M555.749,317.853l-1.049,2.618-8.613-3.509,1.049-2.613Z" transform="translate(-232.775 -188.279)" fill="#003950"/><path d="M549.513,315.355,548.5,317.9l-8.407-3.421,1.018-2.542Z" transform="translate(-242.672 -192.266)" fill="#003950"/><path d="M543.36,312.888l-.988,2.467-8.2-3.337.991-2.47Z" transform="translate(-252.441 -196.201)" fill="#003950"/><path d="M537.283,310.449l-.962,2.4-7.993-3.254.96-2.393Z" transform="translate(-262.08 -200.083)" fill="#003950"/><path d="M531.281,308.043l-.931,2.321-7.786-3.17.933-2.319Z" transform="translate(-271.592 -203.913)" fill="#003950"/><path d="M525.362,305.67l-.906,2.247-7.577-3.085.9-2.247Z" transform="translate(-280.973 -207.693)" fill="#003950"/><path d="M519.52,303.328l-.874,2.173-7.375-3,.877-2.173Z" transform="translate(-290.23 -211.418)" fill="#003950"/><path d="M513.754,301.019l-.845,2.1-7.169-2.92.848-2.1Z" transform="translate(-299.355 -215.093)" fill="#003950"/><path d="M508.067,298.737l-.819,2.028-6.959-2.833.819-2.025Z" transform="translate(-308.35 -218.714)" fill="#003950"/><path d="M502.458,296.492l-.79,1.951-6.753-2.748.79-1.951Z" transform="translate(-317.219 -222.283)" fill="#003950"/><path d="M496.923,294.278l-.755,1.879-6.549-2.666.761-1.879Z" transform="translate(-325.958 -225.801)" fill="#003950"/><path d="M491.471,292.093l-.729,1.8-6.342-2.581.734-1.8Z" transform="translate(-334.57 -229.267)" fill="#003950"/><path d="M486.1,289.938l-.7,1.736-6.133-2.5.7-1.73Z" transform="translate(-343.051 -232.679)" fill="#003950"/><path d="M480.8,287.818l-.673,1.659-5.926-2.412.673-1.659Z" transform="translate(-351.404 -236.041)" fill="#003950"/><path d="M475.578,285.731l-.644,1.582-5.719-2.324.644-1.588Z" transform="translate(-359.629 -239.349)" fill="#003950"/><path d="M470.436,283.675l-.615,1.508-5.512-2.242.615-1.513Z" transform="translate(-367.725 -242.607)" fill="#003950"/><path d="M465.374,281.644l-.589,1.439-5.306-2.157.586-1.439Z" transform="translate(-375.694 -245.81)" fill="#003950"/><path d="M460.386,279.652l-.557,1.362-5.1-2.075.554-1.362Z" transform="translate(-383.532 -248.962)" fill="#003950"/><path d="M455.478,277.691l-.53,1.288-4.89-1.99.528-1.291Z" transform="translate(-391.242 -252.063)" fill="#003950"/><path d="M450.648,275.757l-.5,1.217-4.683-1.908.5-1.214Z" transform="translate(-398.823 -255.109)" fill="#003950"/><path d="M445.9,273.859,445.426,275l-4.479-1.823.469-1.142Z" transform="translate(-406.277 -258.106)" fill="#003950"/><path d="M441.221,271.992l-.44,1.068-4.272-1.739.44-1.068Z" transform="translate(-413.601 -261.048)" fill="#003950"/><path d="M436.629,270.152l-.414,1-4.068-1.654.416-1Z" transform="translate(-420.799 -263.94)" fill="#003950"/><path d="M432.107,268.351l-.383.921-3.859-1.571.383-.922Z" transform="translate(-427.865 -266.78)" fill="#003950"/></g><g transform="translate(259.652 328.124)"><path d="M266.2,326.9l1.2,2.981-9.65,3.928-1.193-2.984Z" transform="translate(-256.551 -167.56)" fill="#003950"/><path d="M272.47,324.331l1.164,2.907-9.44,3.843-1.166-2.91Z" transform="translate(-245.864 -171.808)" fill="#003950"/><path d="M278.659,321.788l1.134,2.836-9.233,3.758-1.134-2.836Z" transform="translate(-235.304 -176.005)" fill="#003950"/><path d="M284.773,319.277l1.108,2.761-9.029,3.676-1.105-2.761Z" transform="translate(-224.875 -180.148)" fill="#003950"/><path d="M290.808,316.8l1.078,2.69-8.823,3.588-1.076-2.685Z" transform="translate(-214.574 -184.241)" fill="#003950"/><path d="M296.765,314.35l1.05,2.613-8.613,3.509-1.049-2.618Z" transform="translate(-204.403 -188.279)" fill="#003950"/><path d="M302.645,311.934l1.02,2.542-8.409,3.421-1.018-2.542Z" transform="translate(-194.358 -192.266)" fill="#003950"/><path d="M308.449,309.549l.989,2.47-8.2,3.337-.991-2.467Z" transform="translate(-184.443 -196.201)" fill="#003950"/><path d="M314.173,307.2l.962,2.393-8,3.254-.962-2.4Z" transform="translate(-174.657 -200.083)" fill="#003950"/><path d="M319.819,304.876l.933,2.319-7.789,3.17-.933-2.321Z" transform="translate(-164.999 -203.913)" fill="#003950"/><path d="M325.385,302.585l.9,2.247-7.58,3.085-.9-2.247Z" transform="translate(-155.469 -207.693)" fill="#003950"/><path d="M330.877,300.328l.875,2.173-7.376,3-.875-2.173Z" transform="translate(-146.069 -211.418)" fill="#003950"/><path d="M336.289,298.1l.843,2.1-7.166,2.92-.845-2.1Z" transform="translate(-136.797 -215.093)" fill="#003950"/><path d="M341.623,295.907l.816,2.025-6.962,2.833-.816-2.028Z" transform="translate(-127.653 -218.714)" fill="#003950"/><path d="M346.879,293.744l.79,1.951-6.755,2.748-.79-1.951Z" transform="translate(-118.639 -222.283)" fill="#003950"/><path d="M352.055,291.612l.761,1.879-6.549,2.666-.758-1.879Z" transform="translate(-109.751 -225.801)" fill="#003950"/><path d="M357.155,289.512l.731,1.8-6.342,2.581-.729-1.8Z" transform="translate(-100.993 -229.267)" fill="#003950"/><path d="M362.179,287.444l.7,1.73-6.132,2.5-.7-1.736Z" transform="translate(-92.366 -232.679)" fill="#003950"/><path d="M367.122,285.407l.673,1.659-5.926,2.412-.673-1.659Z" transform="translate(-83.864 -236.041)" fill="#003950"/><path d="M371.988,283.4l.642,1.588-5.717,2.324-.644-1.582Z" transform="translate(-75.493 -239.349)" fill="#003950"/><path d="M376.776,281.428l.617,1.513-5.515,2.242-.615-1.508Z" transform="translate(-67.25 -242.607)" fill="#003950"/><path d="M381.487,279.487l.588,1.439-5.308,2.157-.586-1.439Z" transform="translate(-59.136 -245.81)" fill="#003950"/><path d="M386.122,277.577l.557,1.362-5.1,2.075-.559-1.362Z" transform="translate(-51.15 -248.962)" fill="#003950"/><path d="M390.674,275.7l.528,1.291-4.9,1.99-.525-1.288Z" transform="translate(-43.292 -252.063)" fill="#003950"/><path d="M395.15,273.852l.5,1.214-4.688,1.908-.5-1.217Z" transform="translate(-35.564 -255.109)" fill="#003950"/><path d="M399.552,272.036l.466,1.142L395.542,275l-.472-1.142Z" transform="translate(-27.965 -258.106)" fill="#003950"/><path d="M403.87,270.253l.442,1.068-4.272,1.739-.442-1.068Z" transform="translate(-20.493 -261.048)" fill="#003950"/><path d="M408.115,268.5l.411,1-4.065,1.654-.413-1Z" transform="translate(-13.151 -263.94)" fill="#003950"/><path d="M412.278,266.78l.383.922-3.859,1.571-.383-.921Z" transform="translate(-5.936 -266.78)" fill="#003950"/></g><path d="M419.48,270.286a3.753,3.753,0,0,1-5.306-5.3l-1.587-1.588a6.045,6.045,0,0,0,8.55,8.547Z" transform="translate(257.635 55.767)" fill="#fff"/><path d="M431.722,263.395l-1.585,1.588a3.754,3.754,0,0,1-5.308,5.3l-1.656,1.656a6.045,6.045,0,1,0,8.55-8.547Z" transform="translate(278.018 55.767)" fill="#fff"/><path d="M549.863,353.249c6.44,0,8.173-3.785,8.173-5.847V343.65c0-2.059-1.733-5.849-8.173-5.849H527.948v15.448Z" transform="translate(450.879 178.533)" fill="none"/><path d="M484.742,347.162v-3.615c0-3.517-3.278-6.385-7.309-6.385h-6.867v16.381h6.867C481.464,353.544,484.742,350.679,484.742,347.162Z" transform="translate(356.216 177.48)" fill="none"/><path d="M417.851,387.026c0,23.242-9.564,42.088-37.7,42.088h-8.542c-22.076,0-37.7-18.846-37.7-42.088V370.287c0-23.248,15.623-42.088,37.7-42.088h8.542c22.074,0,37.7,18.84,37.7,42.088Zm-27.692-12.8c0-12.3-4.8-22.283-11.579-22.283h-5.4c-6.779,0-11.582,9.978-11.582,22.283v8.868c0,12.3,4.747,22.278,11.526,22.278H378.6c8.645,0,11.557-9.976,11.557-22.278Z" transform="translate(130.743 162.682)" fill="#003950"/><path d="M309.29,328.209h-9.62v-.016h-45v23.765h7.76v53.386h-7.76v23.78H309.29c28.132,0,37.7-18.846,37.7-42.088V370.3C346.987,347.049,331.364,328.209,309.29,328.209ZM319.3,383.1c0,12.3-4.336,22.278-12.978,22.278h-14v-.037H286.71V351.958h12.96v-.005h8.046c6.782,0,11.581,9.978,11.581,22.283Z" transform="translate(0 162.672)" fill="#003950"/><path d="M606.926,328.209h-4.185v-.016h-45v23.765H565.5v53.386h-7.757v23.78h49.183c28.135,0,37.7-18.846,37.7-42.088V370.3C644.625,347.049,629,328.209,606.926,328.209Zm10,54.894c0,12.3-4.338,22.278-12.978,22.278h-8.56v-.037h-5.616V351.958h12.965v-.005h2.611c6.782,0,11.579,9.978,11.579,22.283Z" transform="translate(500.047 162.672)" fill="#003950"/><path d="M468.168,328.2H430.517v23.738h12.024v32.571l-25.7-56.3h-45v23.733h7.757v53.388h-7.757v23.847h37.654V405.328H397.464V368.261L425.146,429.1H460.41V351.941h7.759Z" transform="translate(193.314 162.688)" fill="#003950"/><path d="M479.339,328.2H414.362V351.93h7.446v53.455h-7.446v23.733h84.266V397.9H479.339v7.48H446.478V390.332H475.4V366.987h-28.92V351.93h32.861v7.485h19.289V328.2Z" transform="translate(263.479 162.678)" fill="#003950"/><path d="M526.6,377.062a23.528,23.528,0,0,0,5.314-15.1v-3.618c0-16.646-15.464-30.146-34.525-30.146H458.472v23.727h7.776V408.4h-7.776v20.746h41.99c19.066,0,34.519-13.5,34.519-30.146v-3.615A23.829,23.829,0,0,0,526.6,377.062Zm-21.9-18.719v3.618c0,3.514-3.278,6.382-7.309,6.382h-6.867V351.961h6.867C501.421,351.961,504.7,354.829,504.7,358.343ZM507.776,399c0,3.519-3.281,6.382-7.315,6.382h-9.938V389h9.938c4.034,0,7.315,2.862,7.315,6.382Z" transform="translate(336.257 162.678)" fill="#003950"/><path d="M532.4,351.957V328.193H493.125v23.764h7.5v53.284h-7.5V429H532.4V405.241h-7.5V351.957Z" transform="translate(393.435 162.671)" fill="#003950"/><path d="M368.42,388.016c8.491-5.719,13.985-14.669,13.985-24.755v-3.753c0-17.271-16.034-31.278-35.812-31.278H339.84v-.037h-45v23.765h7.77v53.391h-7.77v23.775h44.076V405.349H326.891V394.536h14.372l12.191,27.083a12.549,12.549,0,0,0,11.757,7.463h30.276C380.131,418.791,371.724,397.995,368.42,388.016Zm-41.529-34.357h21.914c6.44,0,8.173,3.79,8.173,5.849v3.753c0,2.062-1.733,5.844-8.173,5.844H326.891Z" transform="translate(66.284 162.672)" fill="#003950"/><path d="M589.434,388.016c8.494-5.719,13.986-14.669,13.986-24.755v-3.753c0-17.271-16.031-31.278-35.812-31.278h-6.75v-.037h-45v23.765h7.773v53.391h-7.773v23.775H559.93V405.349H547.906V394.536h14.375l12.191,27.083a12.763,12.763,0,0,0,11.754,7.463H616.5C601.149,418.655,592.739,397.995,589.434,388.016Zm-41.528-34.357h21.917c6.437,0,8.173,3.79,8.173,5.849v3.753c0,2.062-1.736,5.844-8.173,5.844H547.906Z" transform="translate(430.921 162.672)" fill="#003950"/></g></svg>