<svg xmlns="http://www.w3.org/2000/svg" width="380.4" height="97.54" viewBox="0 0 380.4 97.54"><g transform="translate(0.02)"><path d="M2.86,94.25H0V83.72H2.86Z" transform="translate(-0.02)" fill="#231815"/><path d="M14.22,90.68a3.8,3.8,0,0,1-.94,2.71,3.3,3.3,0,0,1-2.52,1,3.16,3.16,0,0,1-2.48-1,4.69,4.69,0,0,1,0-5.58,3.11,3.11,0,0,1,2.46-1.07,3.17,3.17,0,0,1,2.54,1.06,4.27,4.27,0,0,1,.94,2.88Zm-2.65-.09a4.18,4.18,0,0,0-.06-.74,2.15,2.15,0,0,0-.15-.57,1,1,0,0,0-.25-.36.44.44,0,0,0-.32-.13c-.23,0-.42.16-.56.49A3,3,0,0,0,10,90.57a3.14,3.14,0,0,0,.21,1.29c.14.32.33.49.57.49s.41-.16.55-.49a3.28,3.28,0,0,0,.24-1.27Z" transform="translate(-0.02)" fill="#231815"/><path d="M22.41,94.25H19.56v-8H18V83.72h6v2.53H22.41Z" transform="translate(-0.02)" fill="#231815"/><path d="M43.41,89a6.49,6.49,0,0,1-1.09,3.91,3.38,3.38,0,0,1-2.85,1.5,3.56,3.56,0,0,1-2.66-1.15,6.11,6.11,0,0,1-1.4-4.38,5.85,5.85,0,0,1,1.46-4.27,3.5,3.5,0,0,1,2.57-1.1A3.42,3.42,0,0,1,42.34,85a6.73,6.73,0,0,1,1.07,4Zm-2.95,0c0-1.9-.34-2.86-1-2.86-.33,0-.6.25-.8.75a5.44,5.44,0,0,0-.3,2A6.14,6.14,0,0,0,38.63,91c.18.49.44.73.77.73s.59-.24.78-.72A5.66,5.66,0,0,0,40.46,89Z" transform="translate(-0.02)" fill="#231815"/><path d="M50.46,97.54H47.72V86.88h2.74l-.06,1a3.07,3.07,0,0,1,.34-.55,1.65,1.65,0,0,1,.38-.37,1.37,1.37,0,0,1,.44-.21,1.79,1.79,0,0,1,.53-.07,2,2,0,0,1,1.73,1.07,5.18,5.18,0,0,1,.66,2.78,5.35,5.35,0,0,1-.63,2.8,1.92,1.92,0,0,1-1.72,1,2.1,2.1,0,0,1-1.73-1.15V94.4Zm1.19-7.05a3,3,0,0,0-.17-1.12c-.11-.27-.27-.4-.47-.4-.42,0-.64.52-.64,1.55s.21,1.58.62,1.58q.3,0,.48-.42a3.13,3.13,0,0,0,.18-1.19Z" transform="translate(-0.02)" fill="#231815"/><path d="M62.5,91.75l2.68.06a3.29,3.29,0,0,1-1.12,1.94,3.41,3.41,0,0,1-2.16.65,3.2,3.2,0,0,1-2.48-1,3.92,3.92,0,0,1-.9-2.72,4.21,4.21,0,0,1,1-2.86A3.14,3.14,0,0,1,62,86.73a3,3,0,0,1,2.41,1.07,4.32,4.32,0,0,1,.9,2.86v.48h-4c0,.75.24,1.13.64,1.13A.59.59,0,0,0,62.5,91.75Zm.07-2.08a1.52,1.52,0,0,0,0-.38.87.87,0,0,0-.14-.29.64.64,0,0,0-.2-.2.52.52,0,0,0-.25-.07.53.53,0,0,0-.46.27,1.13,1.13,0,0,0-.18.67Z" transform="translate(-0.02)" fill="#231815"/><path d="M76,94.25H73.28v-3.9a1.63,1.63,0,0,0-.1-.7.33.33,0,0,0-.34-.2q-.57,0-.57,1.08v3.72H69.53V86.88h2.74v1.4a2.162,2.162,0,0,1,1.93-1.56,1.63,1.63,0,0,1,1.38.66,3,3,0,0,1,.5,1.84Z" transform="translate(-0.02)" fill="#231815"/><path d="M90.82,94.25H88V83.72h2.84Z" transform="translate(-0.02)" fill="#231815"/><path d="M101.87,94.25H99.14v-3.9a1.81,1.81,0,0,0-.1-.7.35.35,0,0,0-.35-.2q-.57,0-.57,1.08v3.72H95.39V86.88h2.73v1.4A2.12,2.12,0,0,1,100,86.72a1.6,1.6,0,0,1,1.37.66,3,3,0,0,1,.5,1.84Z" transform="translate(-0.02)" fill="#231815"/><path d="M112.81,94.25h-2.73v-3.9a1.63,1.63,0,0,0-.1-.7.34.34,0,0,0-.34-.2c-.39,0-.58.36-.58,1.08v3.72h-2.73V86.88h2.73v1.4A2.12,2.12,0,0,1,111,86.72a1.63,1.63,0,0,1,1.38.66,3,3,0,0,1,.49,1.84Z" transform="translate(-0.02)" fill="#231815"/><path d="M123.91,90.68a3.8,3.8,0,0,1-.94,2.71,3.3,3.3,0,0,1-2.52,1,3.16,3.16,0,0,1-2.48-1,4.69,4.69,0,0,1,0-5.58,3.12,3.12,0,0,1,2.47-1.07A3.16,3.16,0,0,1,123,87.78,4.22,4.22,0,0,1,123.91,90.68Zm-2.65-.09a5.5,5.5,0,0,0-.05-.74,2.59,2.59,0,0,0-.16-.57,1,1,0,0,0-.25-.36.44.44,0,0,0-.32-.13c-.23,0-.41.16-.56.49a3,3,0,0,0-.21,1.29,3.14,3.14,0,0,0,.21,1.29c.15.32.33.49.57.49s.41-.16.55-.49a3.28,3.28,0,0,0,.22-1.27Z" transform="translate(-0.02)" fill="#231815"/><path d="M132.42,94.25h-2.85l-2-7.37h2.77l.42,2.15c.06.28.12.63.17,1s.1.9.15,1.47c.06-.52.12-1,.18-1.36s.12-.72.18-1l.47-2.3h2.7Z" transform="translate(-0.02)" fill="#231815"/><path d="M145,94.25h-2.74v-.7a1.676,1.676,0,0,1,.05-.54,2.14,2.14,0,0,1-1.91,1.39,1.84,1.84,0,0,1-1.64-1,5.65,5.65,0,0,1-.6-2.85,5.27,5.27,0,0,1,.62-2.76,1.89,1.89,0,0,1,1.69-1,2,2,0,0,1,1.77,1.33q0-.15,0-.24v-.93H145Zm-2.77-3.78a6.728,6.728,0,0,0,0-.69,1.741,1.741,0,0,0-.1-.47.51.51,0,0,0-.17-.26.5.5,0,0,0-.27-.08c-.46,0-.7.62-.7,1.85q0,1.32.63,1.32c.38,0,.59-.55.59-1.67Z" transform="translate(-0.02)" fill="#231815"/><path d="M152.55,94.25h-2.74V89.08H149v-2.2h.78V84.71h2.74v2.17h.91v2.2h-.91Z" transform="translate(-0.02)" fill="#231815"/><path d="M160.36,84.59a1.5,1.5,0,0,1-.48,1.12,1.58,1.58,0,0,1-2.25,0,1.6,1.6,0,0,1-.47-1.14,1.53,1.53,0,0,1,.47-1.12,1.57,1.57,0,0,1,1.12-.46,1.6,1.6,0,0,1,1.61,1.6Zm-.24,9.66h-2.74V86.88h2.74Z" transform="translate(-0.02)" fill="#231815"/><path d="M171.23,90.68a3.8,3.8,0,0,1-.94,2.71,3.3,3.3,0,0,1-2.52,1,3.14,3.14,0,0,1-2.48-1,4.69,4.69,0,0,1,0-5.58,3.11,3.11,0,0,1,2.46-1.07,3.17,3.17,0,0,1,2.54,1.06,4.27,4.27,0,0,1,.94,2.88Zm-2.65-.09a4.18,4.18,0,0,0-.06-.74,2.611,2.611,0,0,0-.15-.57,1,1,0,0,0-.25-.36.44.44,0,0,0-.32-.13c-.23,0-.42.16-.56.49a3,3,0,0,0-.21,1.29,3.14,3.14,0,0,0,.21,1.29c.14.32.33.49.57.49s.4-.16.55-.49a3.48,3.48,0,0,0,.22-1.27Z" transform="translate(-0.02)" fill="#231815"/><path d="M182,94.25h-2.74v-3.9a1.85,1.85,0,0,0-.09-.7.36.36,0,0,0-.35-.2q-.57,0-.57,1.08v3.72h-2.74V86.88h2.74v1.4a2.162,2.162,0,0,1,1.93-1.56,1.63,1.63,0,0,1,1.38.66,3,3,0,0,1,.5,1.84Z" transform="translate(-0.02)" fill="#231815"/><path d="M196.77,94.25h-2.84V83.72h2.75a4.7,4.7,0,0,1,3.06.84,3.41,3.41,0,0,1,1.17,2.75,3.36,3.36,0,0,1-1.25,2.86,4.07,4.07,0,0,1-2.45.63h-.44Zm0-5.82h.13a1.09,1.09,0,0,0,.82-.32,1.17,1.17,0,0,0,.31-.87,1.27,1.27,0,0,0-.3-.88A1,1,0,0,0,197,86h-.2Z" transform="translate(-0.02)" fill="#231815"/><path d="M211.58,94.25h-2.74V93.01A2.12,2.12,0,0,1,207,94.4a1.84,1.84,0,0,1-1.64-1,5.65,5.65,0,0,1-.6-2.85,5.18,5.18,0,0,1,.62-2.76,1.89,1.89,0,0,1,1.69-1,2,2,0,0,1,1.77,1.33V86.95h2.79Zm-2.77-3.78a6.728,6.728,0,0,0,0-.69,1.741,1.741,0,0,0-.1-.47.47.47,0,0,0-.18-.26.45.45,0,0,0-.26-.08c-.47,0-.7.62-.7,1.85,0,.88.21,1.32.62,1.32S208.81,91.59,208.81,90.47Z" transform="translate(-0.02)" fill="#231815"/><path d="M218.77,94.25H216V86.88h2.73l-.14,1.44a2.14,2.14,0,0,1,2.05-1.62v3.07a1.72,1.72,0,0,0-.76-.25,1,1,0,0,0-.85.4,1.94,1.94,0,0,0-.3,1.17Z" transform="translate(-0.02)" fill="#231815"/><path d="M227.78,94.25H225V89.08h-.78v-2.2H225V84.71h2.74v2.17h.9v2.2h-.9Z" transform="translate(-0.02)" fill="#231815"/><path d="M239.1,94.25h-2.73v-3.9a1.63,1.63,0,0,0-.1-.7.34.34,0,0,0-.34-.2c-.39,0-.58.36-.58,1.08v3.72h-2.73V86.88h2.73v1.4a2.12,2.12,0,0,1,1.94-1.56,1.6,1.6,0,0,1,1.37.66,3,3,0,0,1,.5,1.84Z" transform="translate(-0.02)" fill="#231815"/><path d="M247.33,91.75l2.67.06a3.28,3.28,0,0,1-1.11,1.94,3.42,3.42,0,0,1-2.17.65,3.22,3.22,0,0,1-2.48-1,4,4,0,0,1-.89-2.72,4.21,4.21,0,0,1,1-2.86,3.13,3.13,0,0,1,2.48-1.11,3,3,0,0,1,2.42,1.07,4.32,4.32,0,0,1,.9,2.86v.48h-4c0,.75.25,1.13.64,1.13a.6.6,0,0,0,.54-.5Zm.06-2.08a1.531,1.531,0,0,0,0-.38,1.121,1.121,0,0,0-.14-.29.64.64,0,0,0-.2-.2.55.55,0,0,0-.25-.07.52.52,0,0,0-.46.27,1.13,1.13,0,0,0-.18.67Z" transform="translate(-0.02)" fill="#231815"/><path d="M257.1,94.25h-2.74V86.88h2.74l-.1,1.44a2.15,2.15,0,0,1,2-1.62v3.07a1.72,1.72,0,0,0-.76-.25,1,1,0,0,0-.85.4,2,2,0,0,0-.29,1.17Z" transform="translate(-0.02)" fill="#231815"/><path d="M262.73,93.64l1-2a2,2,0,0,0,1.37.77c.36,0,.53-.13.53-.38s-.23-.42-.71-.59c-1.29-.46-1.93-1.18-1.93-2.16a2.25,2.25,0,0,1,.86-1.8,3.27,3.27,0,0,1,2.16-.72,4.64,4.64,0,0,1,2.19.6l-.93,2a1.92,1.92,0,0,0-1.12-.65c-.29,0-.43.12-.43.35s.27.48.81.7a3.47,3.47,0,0,1,1.4.85,1.9,1.9,0,0,1,.38,1.25,2.38,2.38,0,0,1-.82,1.86,3.11,3.11,0,0,1-2.12.72,4.74,4.74,0,0,1-1.24-.16,3.18,3.18,0,0,1-.62-.23C263.27,93.91,263,93.79,262.73,93.64Z" transform="translate(-0.02)" fill="#231815"/><path d="M.91,67.35V0H17.27V67.35Z" transform="translate(-0.02)" fill="#231815"/><rect width="25.37" height="24.61" transform="translate(35.38 24.11)" fill="#036eb7"/><path d="M55.73,36.42a7,7,0,0,1-2.23,5.3,7.47,7.47,0,0,1-5.34,2.13,7.89,7.89,0,0,1-3-.57,8,8,0,0,1-2.46-1.56A7.13,7.13,0,0,1,41,39.41a7,7,0,0,1-.6-2.92,7.08,7.08,0,0,1,.6-2.88,7.65,7.65,0,0,1,1.67-2.38,8.06,8.06,0,0,1,2.46-1.63,7.38,7.38,0,0,1,3-.61,7.5,7.5,0,0,1,5.34,2.12A7,7,0,0,1,55.73,36.42Z" transform="translate(-0.02)" fill="#fff"/><rect width="25.37" height="24.61" transform="translate(35.38 24.35)" fill="#036eb7"/><rect width="8.75" height="8.75" transform="translate(43.69 32.28)" fill="#fff"/><path d="M103.94,13.89V67.35H87.68V13.89h-19V0H123V13.89Z" transform="translate(-0.02)" fill="#231815"/><rect width="54.07" height="13.55" transform="translate(138.86 17.34)" fill="#231815"/><rect width="54.07" height="13.55" transform="translate(138.86 53.31)" fill="#231815"/><rect width="13.55" height="49.53" transform="translate(138.86 17.34)" fill="#231815"/><rect width="13.55" height="49.53" transform="translate(179.38 17.34)" fill="#231815"/><path d="M152.41,53.31l16.17-5.9V36.79l-16.17-5.9Z" fill="#036eb7"/><rect width="16.27" height="67.35" transform="translate(215.11)" fill="#231815"/><rect width="51.08" height="13.13" transform="translate(215.11)" fill="#231815"/><rect width="51.08" height="13.13" transform="translate(215.11 28.68)" fill="#231815"/><rect width="16.5" height="41.81" transform="translate(249.7)" fill="#231815"/><path d="M298.74,44.83l-4.44,2.33V72.63h-5.93V52.45L288,53.79l-5.7-1.69,6.07-18V30.22h-4.52V24.44h4.52V15.9h5.93v8.54h2.82v5.78H294.3v8.12Zm20.82-15.38h7.06v4.87H314.76v2.54h9.39V59.23H299.94V36.86h9.39V34.32H297.76V29.45h7.12V25.78h-4.8V20.91h4.8v-5h5.3v5h3.95v-5h5.43v5h4.8v4.87h-4.8ZM298.46,70l4.16-8h6.64l-5.65,10.79Zm10.87-28.22h-3.67v3.81h3.67Zm-3.67,8.39v4.17h3.67V50.12Zm4.52-24.34V29.5h3.95V25.78Zm8.11,15.95h-3.53v3.81h3.53Zm-3.53,12.56h3.53V50.12h-3.53Zm.57,7.69H322l3.81,7.83-5.22,2.82Z" transform="translate(-0.02)" fill="#231815"/><path d="M344.9,41.87l5.44,2.89-7.69,28.3-5.44-2.83Zm4.17-23.57v5.5H337.78V18.3Zm0,11.64v5.43H337.78V29.94Zm.49,40.15,5.79-12.35h6.49l-7.13,15.1Zm24.63-20.46h6.21v5.5H349.7v-5.5h5.37V21.76l17.35-6.07,2.76,5.15-14.26,5v2.89h17V34.1h-3.74ZM360.92,34.1V49.63h7.48V34.1Zm13.83,23.64L380.19,70l-5.37,2.82-6.7-15.1Z" transform="translate(-0.02)" fill="#231815"/><path d="M288.65,94.25h-2.84V89.79l-2.61-6.07h3l.52,1.56.26.88c.08.28.16.55.22.81.1-.38.19-.72.27-1s.15-.5.21-.67l.51-1.58h3l-2.45,6.07Z" transform="translate(-0.02)" fill="#231815"/><path d="M303,89a6.42,6.42,0,0,1-1.1,3.91,3.35,3.35,0,0,1-2.84,1.5,3.56,3.56,0,0,1-2.66-1.15A6.07,6.07,0,0,1,295,88.9a5.79,5.79,0,0,1,1.46-4.27,3.5,3.5,0,0,1,2.57-1.1A3.39,3.39,0,0,1,301.9,85a6.66,6.66,0,0,1,1.1,4Zm-3,0c0-1.91-.34-2.86-1-2.86-.34,0-.6.25-.8.75a5.44,5.44,0,0,0-.3,2,5.93,5.93,0,0,0,.3,2.11c.18.49.44.73.77.73s.59-.24.77-.72A5.63,5.63,0,0,0,300,89Z" transform="translate(-0.02)" fill="#231815"/><path d="M315.33,94.25h-3.07l-1.89-4.86.08,4.86H307.6V83.72h2.85l-.08,4.51,1.68-4.51h3l-2.27,5.08Z" transform="translate(-0.02)" fill="#231815"/><path d="M327.29,89a6.49,6.49,0,0,1-1.1,3.91,3.35,3.35,0,0,1-2.84,1.5,3.58,3.58,0,0,1-2.67-1.15,6.11,6.11,0,0,1-1.39-4.38,5.79,5.79,0,0,1,1.46-4.27,3.48,3.48,0,0,1,2.57-1.1A3.39,3.39,0,0,1,326.21,85a6.66,6.66,0,0,1,1.08,4Zm-3,0c0-1.91-.34-2.86-1-2.86q-.51,0-.81.75a5.68,5.68,0,0,0-.29,2,5.931,5.931,0,0,0,.28,2.06c.18.49.44.73.76.73s.6-.24.78-.72a5.63,5.63,0,0,0,.33-1.96Z" transform="translate(-0.02)" fill="#231815"/><path d="M339,94.25h-2.84V90H334.8v4.24h-2.84V83.72h2.84v3.72h1.36V83.72H339Z" transform="translate(-0.02)" fill="#231815"/><path d="M351.42,94.25h-2.94l-.21-1.34h-1.92l-.23,1.34h-2.94l2.53-10.53h3.48Zm-3.49-3.59-.18-1.23a.591.591,0,0,1,0-.19c0-.1-.06-.49-.14-1.18v-.32a2.063,2.063,0,0,0-.05-.51l-.09-1v.32a1.129,1.129,0,0,1-.05.39,4.549,4.549,0,0,0-.07.58.6.6,0,0,0,0,.2L347,89l-.29,1.66Z" transform="translate(-0.02)" fill="#231815"/><path d="M366.48,94.25h-3l-.21-4.8-.09-1.92a8.837,8.837,0,0,1-.11,1.06c-.04.34-.09.65-.15,1l-.89,4.69h-2.32l-.77-4.7c0-.27-.1-.74-.18-1.4l-.06-.62-.07,2-.25,4.77h-3l1.23-10.53h3.54l.59,3.55c.05.29.1.6.13.94s.08.72.11,1.12q.09-1,.24-1.8l.73-3.81h3.51Z" transform="translate(-0.02)" fill="#231815"/><path d="M378.73,94.25h-2.94l-.21-1.34h-1.91l-.24,1.34H370.5L373,83.72h3.48Zm-3.48-3.59-.19-1.23v-.19c0-.12-.06-.49-.15-1.18v-.32a1.731,1.731,0,0,0-.06-.51l-.08-1v.32a3.749,3.749,0,0,0-.05.39,3.586,3.586,0,0,1-.07.58.911.911,0,0,1,0,.2l-.2,1.27-.28,1.66Z" transform="translate(-0.02)" fill="#231815"/></g></svg>