<svg xmlns="http://www.w3.org/2000/svg" width="890" height="257.161" viewBox="0 0 890 257.161"><g transform="translate(-111.846 -384.857)"><path d="M207.673,423.405c9.379-4.864,14.586-13.457,17.091-22.051l4.323-.59c2.208-.294,2.5,1.079,2.356,2.26-.294,2.5-1.326,9.574-3.439,12.277-1.865,2.406-3.732,3.191-5.6,1.181-2.6-2.851-5.795,1.618-3.485,3.977,4.273,4.419,10.118,2.752,13.556-2.554,2.357-3.634,3.485-10.708,4.026-15.567.442-3.979-2.5-6.386-6.237-5.993-1.475.146-2.947.343-4.422.541.2-1.032.346-2.063.492-3.046a31.6,31.6,0,0,0,.343-4.715c-.146-2.9-5.01-3.29-5.155-.1a30.517,30.517,0,0,1-.049,5.158c-.148,1.082-.343,2.162-.59,3.29-1.719.2-3.488.442-5.35.59a47.677,47.677,0,0,1-6.19.393c-3.194-.151-3.636,4.716.489,4.716a52.678,52.678,0,0,0,6.19-.64l3.485-.492c-2.552,6.828-7.218,13.309-14.29,16.894C201.192,421,204.43,425.072,207.673,423.405Z" transform="translate(134.519 2.839)" fill="#b53d2d"/><path d="M216.378,391.521a16.864,16.864,0,0,1,3.979,2.9c1.618,1.914,4.468-1.082,2.552-3.1a16.417,16.417,0,0,0-4.812-2.947C215.839,387.544,213.92,390.491,216.378,391.521Z" transform="translate(151.992 4.96)" fill="#b53d2d"/><path d="M218.21,389.842a17.727,17.727,0,0,1,4.026,2.752c1.667,1.816,4.419-1.178,2.455-3.145a15.494,15.494,0,0,0-4.913-2.8C217.474,385.914,215.705,388.859,218.21,389.842Z" transform="translate(154.581 2.464)" fill="#b53d2d"/><path d="M224.3,399.017c.541,0,.983.047,1.571.047.983,0,2.31-.047,4.864-.148,3.881-.146,11.052-.588,20.431-.588h2.6c2.112,0,3.145-1.277,3.145-2.552a2.691,2.691,0,0,0-2.994-2.507h-.1c-8.643.244-19.154.835-23.18.835-1.964,0-4.125-.047-5.943-.148h-.294c-1.964,0-2.947,1.178-2.947,2.406A2.721,2.721,0,0,0,224.3,399.017Z" transform="translate(161.135 12.366)" fill="#b53d2d"/><path d="M241.487,398.254c1.571-.1,3.29-.64,6.089-.934,2.161-.247,4.96-.64,7.957-.983a2.528,2.528,0,0,0,.343.736,3.289,3.289,0,0,1,.59,2.26c-.442,5.01-5.4,12.23-13.213,14.685-3.436,1.079-2.455,6.533,2.31,4.664,9.283-3.631,15.421-12.129,16.108-19.151a6.906,6.906,0,0,0-.343-3.782c.59-.052,1.131-.052,1.672-.1,2.8-.2,5.449-.049,8.446,0,2.112,0,3.194-1.178,3.241-2.406.05-1.425-.785-2.161-2.994-2.458-2.359-.343-3.979.148-6.976.4-5.106.442-13.359,1.373-17.091,1.766-2.161.247-4.419.2-6.188.343C237.656,393.587,238.246,398.4,241.487,398.254Z" transform="translate(186.68 8.543)" fill="#b53d2d"/><path d="M253.767,387.937a29.223,29.223,0,0,1,3.34,3.587,2.007,2.007,0,0,0,3.093-2.557,15.945,15.945,0,0,0-4.172-3.782C253.964,383.96,251.556,386.462,253.767,387.937Z" transform="translate(207.355 0)" fill="#b53d2d"/><path d="M254.326,392.419c1.129,2.211,4.565-.047,3.192-2.453a15.291,15.291,0,0,0-4.026-3.933c-2.013-1.324-4.518,1.082-2.359,2.653A17.668,17.668,0,0,1,254.326,392.419Z" transform="translate(203.555 1.165)" fill="#b53d2d"/><path d="M243.832,393.419a39.474,39.474,0,0,0,5.8-.442c2.211-.247,3.782-.491,6.679-.689,1.62-.1,2.848-.146,4.468-.245,4.619-.294,3.831-4.812.1-4.96a8.648,8.648,0,0,0-2.357.294,21.587,21.587,0,0,1-2.31.442c-2.947.3-5.155.541-7.514.785-1.766.2-3.142.049-4.861.1C239.9,388.849,240.687,393.369,243.832,393.419Z" transform="translate(190.13 3.26)" fill="#b53d2d"/><path d="M259.077,394.388a20.312,20.312,0,0,1,6.976,3.34,2.646,2.646,0,0,0,3.975-.687,2.822,2.822,0,0,0-.832-3.98,30.272,30.272,0,0,0-8.1-3.29C257.358,388.841,256.13,393.751,259.077,394.388Z" transform="translate(214.04 7.053)" fill="#b53d2d"/><path d="M260.444,413.449c-3.142.346-2.552,5.5,1.524,5.16a10.56,10.56,0,0,0,4.713-1.573,55.393,55.393,0,0,0,23.77-23.526c2.161-3.928-2.8-5.99-4.419-2.9-4.963,9.579-12.917,17.583-21.807,21.612A16.791,16.791,0,0,1,260.444,413.449Z" transform="translate(215.521 6.261)" fill="#b53d2d"/><path d="M284.646,397.551a25.288,25.288,0,0,1,8.2,5.943c2.063,2.406,5.551-.785,3.685-3.34-2.115-2.848-7.025-5.059-9.579-6.089C283.86,392.838,282.141,396.521,284.646,397.551Z" transform="translate(252.278 13.173)" fill="#b53d2d"/><path d="M277.9,414.846a47.679,47.679,0,0,0,14.045-10.216c0,4.123-.541,10.216-.739,14.586a2.4,2.4,0,0,0,2.653,2.653,2.628,2.628,0,0,0,2.5-2.9c-.148-4.666-.148-12.082,0-15.419a9.02,9.02,0,0,0-.247-3.636,64.694,64.694,0,0,0,3.93-5.4c1.964-3-.588-5.844-3.93-5.353-3.485.492-7.413,1.571-10.508,2.307a29.122,29.122,0,0,1-3.436.64c-3.93.343-3.1,5.2.1,4.859a21.4,21.4,0,0,0,3.93-.931c2.6-.736,5.007-1.522,7.366-2.109.885-.2,1.228.047.835.637-3.043,4.713-11.1,12.672-18.761,15.962C271.71,412.243,274.413,416.467,277.9,414.846Z" transform="translate(237.955 6.242)" fill="#b53d2d"/><path d="M280.4,389.69a20.821,20.821,0,0,1,7.712,2.7c2.453,1.719,5.007-2.11,2.651-3.975-2.159-1.719-6.433-2.458-9.231-2.848C278.383,385.125,277.7,389.347,280.4,389.69Z" transform="translate(245.331 0.996)" fill="#b53d2d"/><path d="M295.332,400.436a2.222,2.222,0,1,0,3.928-2.063,19.819,19.819,0,0,0-3.485-4.224c-2.26-2.063-5.106.983-3.1,2.7A11.616,11.616,0,0,1,295.332,400.436Z" transform="translate(264.851 12.644)" fill="#b53d2d"/><path d="M294.262,411.918c-2.7,1.228-1.129,5.5,2.211,3.881a31.365,31.365,0,0,0,16.157-17.094,8.4,8.4,0,0,0,.934-4.026c-.2-3.29-4.96-3.046-4.864-.049a7.8,7.8,0,0,1-.343,2.359A25.642,25.642,0,0,1,294.262,411.918Z" transform="translate(266.166 10.936)" fill="#b53d2d"/><path d="M297.481,399.46c1.03,3.1,5.254,1.277,4.125-1.522a18.331,18.331,0,0,0-2.848-4.617c-1.966-2.357-5.207.245-3.439,2.211A12.159,12.159,0,0,1,297.481,399.46Z" transform="translate(268.988 11.067)" fill="#b53d2d"/><path d="M308.794,424.169c13.26-5.158,20.428-14.636,28.335-28.192,1.87-3.194-1.178-5.6-4.614-5.4-2.208.148-4.765.736-7.122,1.131a8.116,8.116,0,0,0,.736-2.161c.541-3.241-4.37-4.125-5.254-.835a15.773,15.773,0,0,1-1.917,4.026c-2.307,3.584-5.891,8.5-10.656,11.395-3.439,2.063-.541,6.531,2.848,4.271,4.323-2.944,8.25-7.858,11.2-11.933a72.61,72.61,0,0,1,7.86-1.228c.736,0,1.178.2.684,1.178-5.647,10.656-13.7,19.5-24.064,22.985C302.653,420.781,304.568,425.79,308.794,424.169Z" transform="translate(283.232 2.616)" fill="#b53d2d"/><path d="M326.32,416.3c9.725-3.928,21.019-13.947,25.49-20.92a2.729,2.729,0,1,0-4.617-2.9c-3.438,5.5-10.755,12.326-18.418,16.5-1.425.788-1.425.047-1.376-1.079.052-1.722.736-9.728.736-11.741,0-2.159.2-3.241-.294-4.762-.884-2.7-4.812-2.357-5.551-.489a3.6,3.6,0,0,0,.148,2.453,15.981,15.981,0,0,1,.4,3.046c.1,3.241-.247,13.309-1.28,16.748C320.866,415.567,322.783,417.729,326.32,416.3Z" transform="translate(308.104 6.747)" fill="#b53d2d"/><path d="M339.379,418.366a45.938,45.938,0,0,0,17.091-11.442A40.256,40.256,0,0,1,368.9,416.4a2.448,2.448,0,0,0,3.634.442,3.019,3.019,0,0,0,.442-4.073c-2.8-4.029-8.838-7.223-13.457-9.335a67.143,67.143,0,0,0,6.19-9.231c1.618-2.848-.539-5.748-4.716-5.353-4.125.393-10.068,1.964-11.837,2.258a30.138,30.138,0,0,1-4.372.538c-4.073,0-3.191,5.111-.047,5.061a22.389,22.389,0,0,0,4.96-.835c1.275-.294,6.874-1.865,9.283-2.112.588-.052.835.294.442,1.079-3.93,7.418-12.425,15.567-21.955,18.86C333.239,415.125,335.743,419.739,339.379,418.366Z" transform="translate(328.449 5.816)" fill="#b53d2d"/><path d="M370.405,400.062a19.016,19.016,0,0,1-7.613,2.643,2.043,2.043,0,0,0-1.966,2.075,2.121,2.121,0,0,0,2.161,2.169c1.719,0,10.706-2.45,10.706-5.185a2.123,2.123,0,0,0-2.112-2.075A2.036,2.036,0,0,0,370.405,400.062Z" transform="translate(366.044 21.805)" fill="#b53d2d"/><path d="M378.788,402.468a18.966,18.966,0,0,1-7.613-2.5,2.284,2.284,0,0,0-1.129-.378,2.106,2.106,0,0,0-2.063,2.028c0,2.735,8.742,5.187,10.56,5.187a2.21,2.21,0,0,0,2.211-2.265A2.016,2.016,0,0,0,378.788,402.468Z" transform="translate(376.568 21.664)" fill="#b53d2d"/><path d="M357.081,415.559a2.585,2.585,0,0,0,2.013-.986,43.191,43.191,0,0,0,4.172-5.946l-.2,17.025v.049c0,1.317,1.181,1.979,2.408,1.979a2.164,2.164,0,0,0,2.406-1.979v-.049s-.2-11.649-.247-19a21.014,21.014,0,0,1,1.719,2.122,1.759,1.759,0,0,0,1.472.753,2.152,2.152,0,0,0,2.016-2.122c0-1.979-4.125-4.194-4.96-4.194h-.247c0-1.131.052-2.406.052-3.725l2.848.047a2.076,2.076,0,0,0,.786-.1,2.183,2.183,0,0,0-.1.568,1.873,1.873,0,0,0,2.013,1.838h9.774v2.45c-1.917,0-3.735,0-5.207.049-3.29.094-4.422,2.026-4.518,3.913-.049,1.131-.049,2.453-.049,3.772s0,2.69.049,4.053c.1,2.312,1.621,3.775,4.614,3.868q3.761.141,7.662.141c2.211,0,4.52-.047,6.827-.141,2.752-.094,4.469-1.838,4.568-3.96.049-1.322.1-2.925.1-4.481,0-1.272-.049-2.5-.1-3.535a4.231,4.231,0,0,0-4.32-3.631c-1.766-.049-3.685-.049-5.6-.049v-2.45h10.9a1.825,1.825,0,1,0,0-3.631h-6.336v-3.584h4.713a1.824,1.824,0,1,0,0-3.629h-4.713v-3.587c0-.988-1.079-1.507-2.109-1.507s-2.063.519-2.063,1.507V391h-4.767v-3.587c0-.988-1.08-1.507-2.112-1.507s-2.063.519-2.063,1.507V391h-4.026a1.829,1.829,0,1,0,0,3.629h4.026v3.584h-5.254a3.167,3.167,0,0,0-.689.047,2.071,2.071,0,0,0,.151-.8,2.044,2.044,0,0,0-2.162-2.075h-2.8c.049-4.2.148-7.781.148-7.781v-.047a2.123,2.123,0,0,0-2.357-2.028,2.187,2.187,0,0,0-2.458,2.028v.047l.148,7.781H358.8a2.075,2.075,0,1,0-.049,4.15h.049l4.466-.1v1.087a41.548,41.548,0,0,1-7.759,11.269,2.281,2.281,0,0,0-.786,1.65A2.323,2.323,0,0,0,357.081,415.559Zm25.932,1.418c-5.9,0-5.993-.049-5.993-3.35h5.993Zm0-6.415H377.02c0-.469.049-.944.049-1.366.047-.9.541-1.652,1.917-1.7,1.225-.047,2.6-.047,4.026-.047Zm4.026,6.415v-3.35h6.042C393.081,416.977,392.983,416.977,387.039,416.977Zm5.993-7.781c0,.423.049.9.049,1.366h-6.042V407.4C392.59,407.4,392.983,407.593,393.032,409.2Zm-10.365-14.571h4.767v3.584h-4.767Z" transform="translate(357.07 0.98)" fill="#b53d2d"/><path d="M385.489,395.374a2.131,2.131,0,0,0-2.063,1.319,46.062,46.062,0,0,1-6.877,11.788,2.342,2.342,0,0,0-.588,1.463,2.636,2.636,0,0,0,2.65,2.408,2.952,2.952,0,0,0,2.408-1.322c4.812-6.225,6.924-12.684,6.924-13.44A2.3,2.3,0,0,0,385.489,395.374Z" transform="translate(388.295 15.461)" fill="#b53d2d"/><path d="M382.253,408.809c1.816,0,7.956-3.676,11.2-7.025a1.813,1.813,0,0,0,.588-1.368,2.523,2.523,0,0,0-2.5-2.312,2.267,2.267,0,0,0-1.667.756,23.087,23.087,0,0,1-8.594,5.659A2.154,2.154,0,0,0,379.7,406.5,2.463,2.463,0,0,0,382.253,408.809Z" transform="translate(393.791 19.473)" fill="#b53d2d"/><path d="M399.929,404.3a25.466,25.466,0,0,1-8.152-5.516,2.347,2.347,0,0,0-1.67-.753,2.292,2.292,0,0,0-2.357,2.119c0,2.406,7.761,7.406,9.626,8.347a3.061,3.061,0,0,0,1.374.328,2.65,2.65,0,0,0,2.655-2.542A2.12,2.12,0,0,0,399.929,404.3Z" transform="translate(405.629 19.363)" fill="#b53d2d"/><path d="M380.951,411.752a2.049,2.049,0,0,0,2.31,1.981h25.586a2.1,2.1,0,0,0,2.359-2.028,2.127,2.127,0,0,0-2.359-2.028l-5.5.047.052-9.241h3.535a2.094,2.094,0,0,0,2.357-1.981,2.134,2.134,0,0,0-2.357-2.077l-17.042.049v-1.225c0-1.415.442-2.122,2.307-2.406,4.323-.613,8.843-.85,13.161-1.981a2.273,2.273,0,0,0,1.917-2.169,2.406,2.406,0,0,0-2.406-2.406,2.835,2.835,0,0,0-.884.143,93.82,93.82,0,0,1-13.947,2.547c-3.685.472-4.864,2.31-4.864,5.091v15.609h-1.964A2.1,2.1,0,0,0,380.951,411.752Zm8.89-11.316,8.838.047.049,9.241h-8.888Z" transform="translate(395.632 2.102)" fill="#b53d2d"/><path d="M378.107,390.155a14.771,14.771,0,0,1,5.059,3.587,2.169,2.169,0,0,0,1.67.8,2.763,2.763,0,0,0,2.6-2.641c0-2.591-6.19-5.42-7.761-5.42a2.579,2.579,0,0,0-2.6,2.216A1.613,1.613,0,0,0,378.107,390.155Z" transform="translate(389.932 2.384)" fill="#b53d2d"/><path d="M377.019,394.782a19.813,19.813,0,0,1,5.746,2.878,2.314,2.314,0,0,0,1.425.519,2.626,2.626,0,0,0,2.406-2.641,2.384,2.384,0,0,0-1.129-2.028,16.675,16.675,0,0,0-7.27-2.641,2.469,2.469,0,0,0-2.455,2.312A1.676,1.676,0,0,0,377.019,394.782Z" transform="translate(387.973 8.838)" fill="#b53d2d"/><path d="M201.068,469.142h-1.8v1.652h5.442l-12.64,19-12.4-19H184.6v-1.652H163.042v1.652h4l15.5,23.089v21.268h-4.515v1.655h20.735v-1.655h-4.516v-22.1l14.831-22.261h4.619v-1.652H201.068Zm-11.086,46.009H186.8V493.8l-15.493-23.007h4.207l14.468,22.012Z" transform="translate(75.268 123.913)" fill="#b53d2d"/><path d="M209.53,468.806c-.3,0-.6.012-.9.02s-.6-.02-.9-.02c-15.006,0-23.667,10.261-23.667,24.828,0,14.646,8.66,24.825,23.667,24.825.3,0,.6-.013.9-.02s.6.02.9.02c15.011,0,23.669-10.264,23.669-24.825C233.2,478.986,224.541,468.806,209.53,468.806Zm-21.355,24.828c0-8.337,3.357-15.891,8.908-20.171-4.105,4.155-5.19,11.227-5.19,20.171,0,9.545,1.816,16.963,6.42,21.036C191.792,510.666,188.175,502.912,188.175,493.634Zm20.453,23.057c-9.041-.578-12.625-9.918-12.625-23.057,0-12.983,3.587-22.474,12.63-23.059,9.046.58,12.63,9.918,12.63,23.059C221.263,506.614,217.677,516.1,208.628,516.69Zm11.553-2.885c4.105-4.157,5.187-11.229,5.187-20.171,0-9.55-1.816-16.97-6.422-21.041,6.524,4,10.145,11.76,10.145,21.041C229.091,501.968,225.732,509.525,220.181,513.805Z" transform="translate(106.175 123.419)" fill="#b53d2d"/><path d="M254.713,468.806c-.3,0-.6.012-.9.02s-.6-.02-.9-.02c-15.009,0-23.667,10.261-23.667,24.828,0,14.646,8.658,24.825,23.667,24.825.3,0,.6-.013.894-.02s.6.02.9.02c15.006,0,23.667-10.264,23.667-24.825C278.38,478.986,269.719,468.806,254.713,468.806Zm-21.36,24.828c0-8.339,3.362-15.9,8.915-20.176-4.108,4.155-5.195,11.229-5.195,20.176,0,9.542,1.813,16.958,6.418,21.034C236.972,510.661,233.353,502.909,233.353,493.634Zm20.458,23.057c-9.043-.578-12.628-9.918-12.628-23.057,0-12.983,3.584-22.474,12.632-23.059,9.043.58,12.627,9.918,12.627,23.059C266.444,506.614,262.857,516.1,253.811,516.69Zm11.55-2.888c4.105-4.155,5.19-11.227,5.19-20.169,0-9.547-1.816-16.965-6.42-21.038,6.521,4.006,10.14,11.76,10.14,21.038C274.272,501.968,270.913,509.525,265.362,513.8Z" transform="translate(172.602 123.419)" fill="#b53d2d"/><path d="M255.563,515.151l-22.222-28.385,18.566-15.972h4.234v-1.652H241.834v1.652h5.486L230.387,485.03l-7.63,6.427V470.795h4.619v-1.652H207.358v1.652h4.234v44.357h-4.234v1.655h20.018v-1.655h-4.619V495.373l2.67-2.258,18.813,23.692h15.268v-1.655h-3.945Zm-36.914,0H215.7V470.795h2.952Zm28.928,0-19.339-24.371L230.546,489l20.335,26.154Z" transform="translate(140.42 123.913)" fill="#b53d2d"/><path d="M284.7,469.142h-1.8v1.652h4.809v19.944H267.264V470.795h5v-1.652h-20.4v1.652H256.1v44.357h-4.234v1.655h20.4v-1.655h-5V492.475h20.448v22.676H282.9v1.655h20.209v-1.655H298.88V470.795h4.231v-1.652H284.7Zm-21.545,46.009H260.2V470.795h2.954Zm31.616,0h-2.952V470.795h2.952Z" transform="translate(205.85 123.913)" fill="#b53d2d"/><path d="M323.61,515.744l-19.628-47H299.36l-20.685,47h-3.466V517.4h12.768v-1.655h-5.2l6.927-15.888h16l6.544,15.888H307.44V517.4h20.4v-1.655H323.61ZM290.381,498.2l7.541-17.318,7.112,17.318Zm25.88,17.546-16.355-39.308,1.729-3.937L319.6,515.744Z" transform="translate(240.172 123.32)" fill="#b53d2d"/><path d="M370.988,515.744l-19.626-47h-4.624l-20.683,47H322.59V517.4h12.766v-1.655h-5.195l6.926-15.888h16l6.541,15.888h-4.812V517.4h20.4v-1.655h-4.231ZM337.762,498.2,345.3,480.88l7.114,17.318Zm25.88,17.546-16.355-39.308,1.726-3.937,17.966,43.245Z" transform="translate(309.831 123.32)" fill="#b53d2d"/><path d="M345.061,469.233h-1.8l-16.083,34.82-16.7-34.973h-13.2v1.761h4.234v44.4h-4.234V516.9h12.766v-1.655h-4.424V482.394L322.1,517.31h2.954l15.71-33.56v31.492H337.3V516.9h18.766v-1.655h-4.135V470.886h4.135v-1.653h-11Zm-21.5,42.369-19.576-40.76h3.337l17.807,37.7Zm21.31,3.641v-40.3l2.3-3.962.613.02.039,44.243Z" transform="translate(272.613 123.822)" fill="#b53d2d"/><path d="M242.741,486.325l-.343-.926a1.1,1.1,0,0,0-.647-.647,1.041,1.041,0,0,0-.311-.062,1.1,1.1,0,0,0-.6.136c-2.875,1.62-6.909,1.371-9.579,1.208-3.942-.244-7.806-1.813-11.894-3.48-4.2-1.7-8.542-3.473-13.109-3.752-5.948-.366-13.294,3.792-18.413,7.341l-.012.01-.163.114a1.092,1.092,0,0,0,.566,1.981,1.079,1.079,0,0,0,.692-.2l.161-.111c2.579-1.749,5.785-1.811,8.584-1.638.553.032,1.089.077,1.6.116.474.04.929.077,1.356.1a26.744,26.744,0,0,1,7.509,1.89c-3.693,4.365-7.3,9.614-13.482,19.561l-4.1,6.407c-1.149,1.835-2.315,3.683-3.508,5.526a82.649,82.649,0,0,1-11.395-1.816c-11.141-2.7-19.065-7.438-23.553-14.095-4.921-7.294-7.586-14.045-5.669-25.129,6.106-35.259,61.493-78.334,117.43-78.334a50.157,50.157,0,0,1,11.751,1.27c4.5,1.089,8.038,3.056,10.222,5.682a11.057,11.057,0,0,1,2.213,10.044c-2.29,9.458-14.534,15.216-22.5,15.735a.518.518,0,0,0-.358.183.528.528,0,0,0-.119.388L265.2,435a.513.513,0,0,0,.464.452c2.707.242,5.3.365,7.707.365,16.118,0,25.2-5.143,27.757-15.718.879-3.634-.249-7.3-3.266-10.612a34.455,34.455,0,0,0-18.531-10.832,99.594,99.594,0,0,0-23.4-2.831c-24.534,0-53.726,8.51-78.094,22.758-26.391,15.431-43.618,35.059-48.512,55.27-2.737,11.3-.832,21.241,5.664,29.531,6.536,8.342,17.664,14.609,32.179,18.121a113.7,113.7,0,0,0,17.057,2.623c-10.555,15.411-23.778,29.1-46.177,27.72-7.267-.45-15.792-3.221-15.135-13.9.45-7.341,6.01-12.773,12.66-12.363,2.893.176,8,.934,9.683,4a1.093,1.093,0,0,0,.889.566,1.108,1.108,0,0,0,.531-.1,1.094,1.094,0,0,0,.553-1.391c-2.095-5.316-7.378-8.739-14.134-9.154-11.812-.724-20.537,6.506-21.216,17.59-.684,11.116,8.53,18.344,24.642,19.334,18.909,1.163,39.315-7.21,53.257-21.854,8.408-8.633,14.431-18.272,20.253-27.592,3.135-5.017,6.1-9.764,9.419-14.379a23.746,23.746,0,0,0,4.419.677c3.547.217,10.664-.235,18.472-5.686A1.092,1.092,0,0,0,242.741,486.325Zm-54.223.684a.286.286,0,0,1-.054.03c.385-.264.771-.506,1.154-.763C189.252,486.518,188.884,486.758,188.518,487.009Z" transform="translate(0 16.129)" fill="#b53d2d"/><path d="M409.887,451.929c3.293,0,3.938,2.562,2.3,8.616-2.248,8.312-8.238,20.935-9.821,26.784-1.86,6.877.467,11.6,7.26,11.595,5.148,0,10.249-2.873,14.433-6.156a67.215,67.215,0,0,0,7.255-6.83,18.842,18.842,0,0,1-.637-4.1,70.832,70.832,0,0,1-5.091,5.284c-2.752,2.564-6.674,5.644-9.863,5.644-3.6,0-3.347-4-2.1-8.623,2.248-8.31,7.5-17.444,9.747-25.754,2.028-7.492,1.42-13.238-7.124-13.238-9.367,0-16.372,6.88-22.256,14.164h-.514a30.7,30.7,0,0,0,2.594-6.158c1.3-4.824-.314-7.593-4.431-7.593a29.131,29.131,0,0,0-6.146,1.028,43.262,43.262,0,0,1-1.633,10.977c-1.327,4.908-4.039,11.946-6.835,19.062a2.99,2.99,0,0,0-1.042.889c-5.81,7.391-12.9,15.7-26.586,15.7-11.733,0-14.053-8.925-11.6-18.366,11.931-.716,29.516-5.234,33.128-18.571,1.751-6.467-2.969-11.084-10.9-11.081-13.994,0-29.289,14.673-33.54,30.368-.126.464-.2.907-.306,1.361a3.372,3.372,0,0,0-.583.588,83.44,83.44,0,0,1-8.685,9.648c-3.305,3.075-6.981,5.644-9.863,5.644-3.6,0-3.342-4.007-2.09-8.621,1.527-5.642,14.868-35.909,19.206-51.913,2.253-8.31,1.811-12-9.305-12a52.8,52.8,0,0,1-2,12.721c-1.2,4.412-2.569,8.72-3.94,13.028a17.087,17.087,0,0,0-4.98-.613c-16.192,0-32.638,13.648-38.74,31.408a3.745,3.745,0,0,0-.677.7c-2.063,2.67-12.684,15.293-22.049,15.293-5.353,0-5.447-4.212-4.278-8.52,2.478-9.132,12.2-22.983,17.168-29.546l4.2-1.848a5.827,5.827,0,0,0,1.677-2.769,3.379,3.379,0,0,0-.7-3.49c-4.219,0-8.67,1.235-10.933,3.9a37.528,37.528,0,0,1-7.662.924c-6.17,0-9.33-2.769-9.33-2.769.173-2.156-.568-3.592-2.011-3.592-3.807,0-7.252,6.257-8,9.028-.556,2.053.689,2.769,2.749,3.9a36,36,0,0,1-1.312,10.155,28.978,28.978,0,0,1-4.357,9.236,4.334,4.334,0,0,0-.3.442,82.859,82.859,0,0,1-8.428,9.305c-3.3,3.075-6.981,5.642-9.863,5.642-3.6,0-3.337-4-2.087-8.618.976-3.589,12.366-32.315,14.907-37.137l-.227-.306c-7.453-.207-11.412-1.542-15.115-1.539-16.975,0-33.631,15.9-38.92,35.393-3.117,11.489-.262,18.776,7.559,18.776,7.613,0,15.5-7.082,20.2-13.035h.516a12.629,12.629,0,0,0-.605,1.85c-1.7,6.255,1.089,10.772,7.675,10.772,4.938,0,9.987-2.668,14.428-6.156a82.034,82.034,0,0,0,13.438-14.26,2.195,2.195,0,0,0,.148-.279,44.744,44.744,0,0,0,6.472-13.47,28.134,28.134,0,0,0,.949-5.027,30.159,30.159,0,0,0,4.52.41,30.7,30.7,0,0,0,7.275-1.028c-5.074,6.563-11.518,17.442-14.023,26.678-2.337,8.613.556,13.131,7.759,13.131,11.321,0,21.715-8.774,27.411-15.033-1.48,9.505,1.88,15.446,9.473,15.446,8.028,0,15.6-7.08,20.512-13.035h.514l-.5,1.848c-1.695,6.26.993,10.775,7.579,10.775,4.943,0,9.987-2.67,14.431-6.156A74.7,74.7,0,0,0,325.5,482.745c.067,10.523,7.826,16.637,19.655,16.637,12.526,0,22.066-7.225,28.479-14.1-2.023,5.225-3.794,10.014-4.72,13.438,10.189,0,11.145-.1,13.336-8.208a78.4,78.4,0,0,1,11.336-25.144C398.116,458.9,404.534,451.929,409.887,451.929Zm-53.212-2.312c3.088,0,4.239,2.972,3.127,7.079-3.278,12.1-12.378,14.159-20.843,14.26C342.8,460.182,350.706,449.617,356.674,449.617ZM193.127,472.5c-3.293,7.591-14.152,20.315-20.018,20.315-3.6,0-3.96-6.26-2.152-12.926,3.283-12.106,13.188-29.65,24.917-29.65,3.187,0,4.52,1.539,3.965,4.718C197.573,461.422,195.37,467.267,193.127,472.5Zm105.916.1c-3.293,7.591-14.12,20.213-20.295,20.213-4.632,0-4.725-6.877-2.833-13.855,3.28-12.1,13.547-28.728,25.379-28.728,3.5,0,5.037,1.541,4.486,4.72C303.514,461.417,301.286,467.365,299.043,472.6Z" transform="translate(68.464 52.076)" fill="#b53d2d"/><path d="M454.992,412.918c-35.84,0-59.427,38.89-68.984,58.375q.263-1.782.521-3.533c4.128-27.948,6.38-50.26,17.545-50.414a1.024,1.024,0,0,0,1.01-1.023l1.008-2.381a1.026,1.026,0,0,0-1.025-1.025,48.676,48.676,0,0,0-16.553,2.458,64.872,64.872,0,0,1-11.736.719h-.832c-42.754,0-64.43,11.15-64.43,33.145A21.534,21.534,0,0,0,315.7,462.4a16.56,16.56,0,0,0,13.648,6.351c6.38,0,13.067-3.127,17.894-8.356a1.03,1.03,0,0,0,.047-1.334l-1.332-1.68a1.019,1.019,0,0,0-.763-.385h-.037a1.019,1.019,0,0,0-.751.326c-3.436,3.7-7.551,5.649-11.9,5.649-5.15,0-10.624-4.943-10.624-14.1,0-26.055,21.2-26.055,45.74-26.055h.83c3.088,0,5.726,0,8.006-.062-4.232,4.152-7.267,9.293-10.708,15.125-.65,1.1-1.314,2.226-2,3.369-2.347,3.89-4.688,7.949-6.946,11.874-14.848,25.776-30.2,52.424-60.243,52.424-6.82,0-14.954-2.381-14.954-13.729,0-7.8,4.886-13.914,11.126-13.914,3.214,0,7.265,1,8.88,3.868a1.033,1.033,0,0,0,.894.521,1,1,0,0,0,.5-.134l.378-.279a1.023,1.023,0,0,0,.445-1.284c-2.255-5.422-7.4-8.658-13.761-8.658-11.086,0-18.83,8.1-18.83,19.695,0,11.632,9.034,18.578,24.156,18.578,17.674,0,36.094-9.52,50.532-26.12,6.054-6.956,12.274-18.037,18.292-28.76,6.758-12.04,13.714-24.428,20.26-30.628-10.792,24.188-12.81,55.154-14.446,80.293l-.269,4.123a1.027,1.027,0,0,0,1.02,1.092h2.329a1.02,1.02,0,0,0,.914-.563c27.93-55.438,46.382-92.061,79.8-92.061,6.823,0,14.954,2.381,14.954,13.732,0,7.8-4.888,13.914-11.126,13.914-3.211,0-6.741-.951-8.357-3.824a1.028,1.028,0,0,0-.894-.521,1.007,1.007,0,0,0-.5.131l-.9.234a1.021,1.021,0,0,0-.445,1.287c2.255,5.422,7.4,8.661,13.759,8.661,11.086,0,18.83-8.1,18.83-19.7C479.151,419.864,470.122,412.918,454.992,412.918Zm-75.017,15.226.081-.1,0,0Z" transform="translate(234.339 41.254)" fill="#b53d2d"/><path d="M663.024,476.352a2.521,2.521,0,0,0-2.055,1.126c-5.8,7.4-12.887,15.713-26.594,15.715-11.751,0-14.09-8.937-11.652-18.383,11.943-.716,29.546-5.239,33.135-18.586,1.741-6.469-3-11.091-10.931-11.091-14.018,0-29.3,14.688-33.527,30.4a16.759,16.759,0,0,0-.8,4.1,89.918,89.918,0,0,1-7.045,6.988,26.782,26.782,0,0,1-4.906,3.288,27.489,27.489,0,0,1-12.324,3.285c-10.2,0-13.371-8.527-10.36-19.717,2.762-10.266,11.252-23.817,19.391-23.817,3.918,0,5.254,3.078,6.3,9.545h.514s5.78-1.954,7.023-6.573c1.492-5.541-6.23-7.492-11.175-7.492-13.707,0-29.56,14.885-33.9,31.008-.072.264-.111.514-.175.773a3.361,3.361,0,0,0-.541.561,83.143,83.143,0,0,1-8.678,9.651c-3.3,3.08-6.983,5.652-9.868,5.652-3.606,0-3.355-4.009-2.112-8.626.968-3.594,12.316-32.342,14.851-37.169l-.227-.309c-7.467-.205-11.434-1.539-15.145-1.537-15.9,0-31.485,13.917-37.737,31.675a3.252,3.252,0,0,0-.689.664s-6.235,8.213-12.262,12.628c-2.3,1.645-4.429,2.673-6.284,2.673-3.607,0-3.352-4.007-2.11-8.626,2.488-9.238,15.256-39.421,18.272-50.611,2.734-10.157,2.25-13.344-8.46-13.344a84.433,84.433,0,0,1-2.641,13.245c-4.3,15.945-11.279,32.661-15.663,45.187-2.688,3.364-10.819,13.018-15.587,13.018-7.21,0-10.308-23.3-10.308-23.3,11.909-3.285,21.74-8.421,23.622-15.4.882-3.285-.025-7.186-5.691-7.186-5.869,0-13.082,4.209-13.885,7.186a1.5,1.5,0,0,0,.993,2.053c1-1.025,3.977-3.285,6.655-3.285,1.855,0,2.682,1.129,1.991,3.7-1.272,4.72-5.99,7.7-21.821,11.395h-.926c4.733-12.215,9.93-25.764,12.311-34.59,2.24-8.315,1.9-12.01-8.819-12.008a85.721,85.721,0,0,1-2.722,13.544c-3.688,13.69-9.2,28.061-14.984,42.655a2.731,2.731,0,0,0-1.746,1.077,56.012,56.012,0,0,1-8.542,9.137,26.619,26.619,0,0,1-4.9,3.285,27.464,27.464,0,0,1-12.321,3.285c-10.2,0-13.361-8.522-10.343-19.712,2.767-10.264,11.264-23.812,19.4-23.812,3.915,0,5.249,3.078,6.287,9.542h.514s5.78-1.949,7.025-6.568c1.494-5.543-6.22-7.495-11.165-7.492-13.7,0-29.556,14.883-33.9,31-.072.264-.114.511-.178.773a3.35,3.35,0,0,0-.541.561c-5.8,7.393-12.889,15.708-26.592,15.71-11.741,0-14.07-8.935-11.622-18.376,11.936-.719,29.531-5.239,33.13-18.581,1.744-6.467-2.986-11.086-10.916-11.086-14.006,0-29.3,14.68-33.535,30.381-4.014,14.888,4.389,23.817,18.707,23.817,13.932,0,24.173-8.925,30.519-16.375-.249,10.395,6.62,16.375,17.328,16.375,8.243,0,16.4-3.49,22.617-8.213a61.639,61.639,0,0,0,7.764-7.129c-1.951,4.9-3.9,9.812-5.8,14.727,9.789,0,12.24-.306,14.068-7.084,1.052-3.9,3.767-11.294,7.092-19.813l1.208.1c1.354,6.052,1.89,27,13.537,27,6.5,0,14.2-6.749,19.569-12.492-.081.294-.178.6-.254.889-1.855,6.879.477,11.6,7.277,11.6,3.814,0,7.4-1.435,10.995-3.7a60.928,60.928,0,0,0,12.4-11.163c-1.64,9.441,1.388,15.271,8.386,15.271,7.628,0,15.513-7.082,20.206-13.04h.516a12.8,12.8,0,0,0-.6,1.85c-1.687,6.262,1.117,10.78,7.712,10.78,4.948,0,9.995-2.67,14.441-6.158a73.9,73.9,0,0,0,9.891-9.816c-.242,10.4,6.632,16.385,17.348,16.385,8.245,0,16.4-3.493,22.617-8.213,2.31-1.786,5.958-5.284,7.559-6.877,1.294,10.735,8.979,15.09,19.519,15.09,14.947,0,25.646-10.268,31.841-17.97a19.744,19.744,0,0,0,2.488-3.493C664.714,476.965,663.847,476.352,663.024,476.352Zm-21.448-26.8c3.09,0,4.249,2.977,3.145,7.087-3.258,12.114-12.366,14.169-20.843,14.27C627.7,460.126,635.6,449.553,641.576,449.551Zm-285.868.017c3.085,0,4.244,2.977,3.137,7.082-3.27,12.111-12.373,14.164-20.848,14.265C341.833,460.141,349.733,449.571,355.708,449.568Zm181.12,22.881c-3.28,7.6-14.132,20.334-20,20.334-3.607,0-3.979-6.267-2.184-12.939,3.263-12.116,13.144-29.674,24.89-29.674,3.194,0,4.528,1.541,3.984,4.723C541.26,461.363,539.064,467.213,536.828,472.45Z" transform="translate(312.671 51.964)" fill="#b53d2d"/><path d="M476.424,433a15.2,15.2,0,0,0-8.9,9.411c-1.087,3.641-3.478,9.935-3.478,9.935,4.041-2.416,9.189-2.606,11.669-3.206,2.27-.551,6.687-2.124,8.077-8.848S480.569,431.47,476.424,433Z" transform="translate(517.798 70.077)" fill="#b53d2d"/><path d="M465.626,434.347c-3.265-.529-5.172,2.91-5.237,5.355-.04,1.48.939,3.98,2.806,6.072a18.885,18.885,0,0,0,2.482,2.29s3.071-3.518,3.728-6.749S469.06,434.906,465.626,434.347Z" transform="translate(512.418 72.679)" fill="#b53d2d"/><path d="M475.275,440.724c-3.639.007-10.728,3.221-10.728,3.221,1.882,1.247,3.715,4.6,5.237,6.351,1.7,1.951,4.061,2.487,6.566,2.477a6.085,6.085,0,0,0,5.721-5.308C482.3,444.634,478.914,440.714,475.275,440.724Z" transform="translate(518.532 82.134)" fill="#b53d2d"/><path d="M393.334,468.863c-.3,0-.6.012-.894.02s-.6-.02-.9-.02c-15.006,0-23.667,10.261-23.667,24.828,0,14.646,8.661,24.825,23.667,24.825.3,0,.6-.012.9-.02s.6.02.9.02c15.009,0,23.669-10.263,23.669-24.825C417,479.043,408.343,468.863,393.334,468.863Zm-.9,47.884c-9.043-.578-12.628-9.918-12.628-23.057,0-12.983,3.587-22.474,12.633-23.059,9.043.581,12.628,9.918,12.628,23.059C405.065,506.672,401.481,516.162,392.432,516.747Z" transform="translate(376.399 123.503)" fill="#b53d2d"/><path d="M384.233,511.482H352.492c2.342-5.024,7.462-9.293,15.594-12.225,7.574-2.678,17.709-6.111,17.709-17.748,0-7.621-5.126-12.729-18.489-12.729-7.126,0-11.686,2.122-15.14,5.136l-3.438,6.245,3.026.022,3.014-5.632a13.685,13.685,0,0,1,9.085-3.51c8.243,0,11.7,5.778,11.7,11.3a17.628,17.628,0,0,1-9.135,15.325c-8.574,4.017-17.262,9.962-17.262,18.838v1.087l.222.252h35.2l4.9-12.642H386.8Z" transform="translate(348.257 123.381)" fill="#b53d2d"/><path d="M434.825,468.863c-.3,0-.6.012-.894.02s-.6-.02-.9-.02c-15.009,0-23.667,10.261-23.667,24.828,0,14.646,8.658,24.825,23.667,24.825.3,0,.6-.012.9-.02s.6.02.9.02c15.009,0,23.669-10.263,23.669-24.825C458.494,479.043,449.834,468.863,434.825,468.863Zm-.9,47.884c-9.043-.578-12.628-9.918-12.628-23.057,0-12.983,3.587-22.474,12.633-23.059,9.043.581,12.628,9.918,12.628,23.059C446.556,506.672,442.969,516.162,433.923,516.747Z" transform="translate(437.398 123.503)" fill="#b53d2d"/><path d="M425.724,511.482H393.983c2.342-5.024,7.462-9.293,15.594-12.225,7.574-2.678,17.709-6.111,17.709-17.748,0-7.621-5.126-12.729-18.489-12.729-7.129,0-11.686,2.122-15.14,5.136l-3.439,6.245,3.026.022,3.014-5.632a13.685,13.685,0,0,1,9.085-3.51c8.243,0,11.7,5.778,11.7,11.3a17.628,17.628,0,0,1-9.135,15.325c-8.574,4.017-17.261,9.962-17.261,18.838v1.087l.222.252h35.2l4.9-12.642h-2.673Z" transform="translate(409.256 123.381)" fill="#b53d2d"/></g></svg>